<?xml version="1.0" encoding="UTF-8" standalone="no"?>
<svg
   xmlns:dc="http://purl.org/dc/elements/1.1/"
   xmlns:cc="http://creativecommons.org/ns#"
   xmlns:rdf="http://www.w3.org/1999/02/22-rdf-syntax-ns#"
   xmlns:svg="http://www.w3.org/2000/svg"
   xmlns="http://www.w3.org/2000/svg"
   xmlns:sodipodi="http://sodipodi.sourceforge.net/DTD/sodipodi-0.dtd"
   xmlns:inkscape="http://www.inkscape.org/namespaces/inkscape"
   width="140.6701mm"
   height="97.66613mm"
   viewBox="0 0 140.6701 97.66613"
   version="1.1"
   id="svg2200"
   inkscape:version="1.0.2-2 (e86c870879, 2021-01-15)"
   sodipodi:docname="MTV_Animation_1995.svg">
  <defs
     id="defs2194">
    <inkscape:path-effect
       effect="perspective-envelope"
       up_left_point="51.464574,180.93457"
       up_right_point="141.70725,181.59603"
       down_left_point="51.651663,188.71602"
       down_right_point="141.67418,189.9728"
       id="path-effect2239"
       is_visible="true"
       lpeversion="1"
       deform_type="perspective"
       horizontal_mirror="false"
       vertical_mirror="false"
       overflow_perspective="false" />
  </defs>
  <sodipodi:namedview
     id="base"
     pagecolor="#ffffff"
     bordercolor="#666666"
     borderopacity="1.0"
     inkscape:pageopacity="0.0"
     inkscape:pageshadow="2"
     inkscape:zoom="1"
     inkscape:cx="269.7858"
     inkscape:cy="177.58302"
     inkscape:document-units="mm"
     inkscape:current-layer="layer1"
     inkscape:document-rotation="0"
     showgrid="false"
     inkscape:window-width="1366"
     inkscape:window-height="705"
     inkscape:window-x="-8"
     inkscape:window-y="-8"
     inkscape:window-maximized="1"
     inkscape:snap-global="true" />
  <metadata
     id="metadata2197">
    <rdf:RDF>
      <cc:Work
         rdf:about="">
        <dc:format>image/svg+xml</dc:format>
        <dc:type
           rdf:resource="http://purl.org/dc/dcmitype/StillImage" />
        <dc:title />
      </cc:Work>
    </rdf:RDF>
  </metadata>
  <g
     inkscape:label="Layer 1"
     inkscape:groupmode="layer"
     id="layer1"
     style="display:inline;opacity:1"
     transform="translate(-33.739135,-99.789107)">
    <g
       id="g1091"
       transform="matrix(0.94375069,0,0,0.94375069,9.1002109,18.368633)"
       style="stroke-width:1.0596">
      <path
         id="path7962-4"
         style="font-style:normal;font-variant:normal;font-weight:bold;font-stretch:normal;font-size:7.48215px;line-height:0.25;font-family:'Helvetica Neue LT Pro';-inkscape-font-specification:'Helvetica Neue LT Pro Bold';text-align:start;letter-spacing:0px;word-spacing:0px;text-anchor:start;fill:#000000;fill-opacity:1;stroke:none;stroke-width:0.445051"
         d="m 137.90193,183.49284 c -0.003,1.03301 0.84354,1.88061 1.88969,1.89143 1.0479,0.0108 1.90392,-0.82167 1.90801,-1.85779 0.004,-1.03676 -0.84628,-1.88592 -1.89541,-1.89365 -1.04738,-0.008 -1.89943,0.82636 -1.90229,1.86001 z m 0.55261,0.005 c 0.002,-0.85011 0.54735,-1.38304 1.34804,-1.37683 0.8017,0.006 1.34479,0.54873 1.34158,1.40065 -0.003,0.85148 -0.5499,1.38358 -1.3509,1.3756 -0.79999,-0.008 -1.34122,-0.54975 -1.33872,-1.39942 z m 1.05347,-0.64743 0.29715,0.002 c 0.16627,0.001 0.38794,0.0281 0.38716,0.25217 -7.7e-4,0.21903 -0.14199,0.25263 -0.34352,0.25087 l -0.34243,-0.003 z m -0.46837,1.68161 0.46286,0.004 0.003,-0.81546 0.17621,0.002 0.46565,0.82011 0.49391,0.005 -0.51621,-0.84079 c 0.30252,-0.0321 0.53013,-0.21926 0.53141,-0.5728 0.002,-0.41837 -0.25492,-0.6446 -0.79935,-0.64898 l -0.81073,-0.007 z m -85.81608,-0.73852 1.118021,4.78621 1.319269,0.0182 0.897753,-4.77192 0.0175,1.7e-4 0.107576,4.78587 1.689757,0.0233 -0.164112,-7.47577 -2.549251,-0.0191 -0.723142,4.38622 -0.0087,-1e-4 -0.928239,-4.39854 -2.531203,-0.0189 0.178718,7.43328 1.679625,0.0232 -0.112248,-4.77229 z m 11.046344,2.02301 c 0.04198,2.08859 -0.820725,3.06421 -2.603703,3.03932 -1.781969,-0.0249 -2.679236,-1.02064 -2.724473,-3.09988 l -0.0999,-4.59159 1.80084,0.0135 0.08672,4.09115 c 0.01622,0.76529 0.03635,1.71474 0.906658,1.72552 0.849675,0.0105 0.830028,-0.9403 0.814192,-1.7067 l -0.08466,-4.09709 1.811607,0.0136 z m 2.342935,0.40639 c 0.0038,0.19434 0.03346,0.36143 0.0712,0.49163 0.145953,0.46461 0.545117,0.56229 0.880958,0.56651 0.296213,0.004 0.749491,-0.12014 0.738997,-0.67673 -0.0073,-0.38952 -0.266149,-0.50371 -1.285838,-0.88631 -0.946907,-0.34417 -2.011295,-0.67983 -2.041474,-2.19881 -0.03445,-1.73412 1.111432,-2.47722 2.323297,-2.46834 1.289806,0.009 2.438209,0.64222 2.516506,2.48607 l -1.716803,-0.0161 c 0.02129,-0.27868 -0.07992,-0.47484 -0.228709,-0.61531 -0.148615,-0.1314 -0.357763,-0.18914 -0.539256,-0.19072 -0.252183,-0.002 -0.648445,0.0872 -0.640191,0.51415 0.0368,0.52936 0.879266,0.64907 1.721893,0.9636 0.848008,0.3057 1.682844,0.80721 1.70817,2.19211 0.03566,1.94999 -1.366405,2.57029 -2.679631,2.55195 -0.671094,-0.009 -2.580074,-0.3407 -2.645416,-2.73478 z m 4.006924,-4.97046 1.836877,0.0137 0.132655,7.56569 -1.832776,-0.0253 z m 6.531297,2.87737 c -0.04033,-0.27175 -0.220208,-1.10678 -0.984147,-1.11359 -0.861664,-0.008 -1.121681,1.05526 -1.104786,2.06414 0.01688,1.00823 0.312201,2.07484 1.172806,2.08549 0.623847,0.008 0.857579,-0.53097 0.953827,-1.24941 l 1.818415,0.0206 c 0.02383,1.53485 -0.936392,3.14781 -2.696378,3.12324 -1.924662,-0.0269 -3.048329,-1.76342 -3.08705,-3.9995 -0.04136,-2.38851 1.121868,-3.9584 2.956937,-3.94495 1.651656,0.0213 2.584125,1.12662 2.771676,3.0317 z m 4.916376,-2.79175 0.02848,1.95676 1.703035,0.0155 0.07962,5.67737 1.859873,0.0257 -0.07646,-5.6861 1.713157,0.0156 -0.02538,-1.96532 z m 5.822733,0.0435 0.09768,7.66286 5.173881,0.0715 -0.02192,-1.96781 -3.28945,-0.0401 -0.0116,-0.95374 2.893698,0.033 -0.02059,-1.82859 -2.895288,-0.0287 -0.01174,-0.96503 3.196125,0.0291 -0.02205,-1.97444 z m 5.763706,0.0431 0.08438,7.69918 4.646343,0.0642 -0.0188,-1.97623 -2.748321,-0.0335 -0.05951,-5.73938 z m 5.128192,0.0384 0.07243,7.7315 5.253353,0.0726 -0.0154,-1.98546 -3.33502,-0.0407 -0.008,-0.96229 2.94155,0.0336 -0.0145,-1.84503 -2.94321,-0.0291 -0.009,-0.97368 3.24474,0.0295 -0.0155,-1.99223 z m 9.808753,0.0733 -0.98705,4.71502 -0.0189,-2.1e-4 -1.05726,-4.73024 -1.96197,-0.0147 1.9408,7.79395 2.16663,0.0299 1.92114,-7.77879 z m 2.74588,0.0205 1.95983,0.0146 0.0381,7.82308 -1.95515,-0.027 z m 4.71406,5.24371 c 8.2e-4,0.20239 0.0303,0.37642 0.069,0.51203 0.15044,0.48392 0.58205,0.58586 0.94654,0.59044 0.3214,0.004 0.81529,-0.12471 0.81329,-0.70438 -10e-4,-0.40567 -0.28035,-0.52472 -1.38048,-0.9237 -1.01221,-0.35878 -2.17103,-0.70894 -2.17823,-2.29082 -0.008,-1.80602 1.24794,-2.57957 2.57239,-2.56986 1.39001,0.0102 2.62593,0.66968 2.68937,2.5904 l -1.87268,-0.0176 c 0.028,-0.29025 -0.0786,-0.49461 -0.23773,-0.64096 -0.15896,-0.13693 -0.38498,-0.19714 -0.58191,-0.19886 -0.27375,-0.002 -0.70995,0.0906 -0.70819,0.5352 0.0357,0.55139 0.94804,0.67642 1.85712,1.00437 0.91511,0.31877 1.81287,0.8415 1.81696,2.28396 0.006,2.03095 -1.52641,2.67612 -2.95122,2.65622 -0.72796,-0.0102 -2.79371,-0.35633 -2.82445,-2.84935 z m 4.42767,-5.17535 1.99407,0.0149 0.0159,7.88089 -1.98924,-0.0275 z m 7.26271,4.01605 c -6.8e-4,-1.75531 -0.79182,-2.17235 -1.299,-2.17687 -0.50699,-0.005 -1.29521,0.39758 -1.29313,2.14927 0.002,1.74998 0.79036,2.187 1.29655,2.19328 0.5065,0.006 1.29625,-0.41208 1.29558,-2.16568 z m 2.00523,0.0214 c -5.8e-4,2.41929 -1.32054,4.12513 -3.29927,4.0975 -1.96294,-0.0274 -3.28405,-1.76104 -3.2884,-4.16765 -0.004,-2.41 1.3139,-4.12276 3.28188,-4.10833 1.98382,0.0145 3.30636,1.75577 3.30579,4.17848 z m 4.75904,0.32516 -0.0197,-2.1e-4 -1.91706,-4.27193 -2.0754,-0.0155 -0.004,7.93132 1.9229,0.0266 0.005,-4.33861 2.02286,4.36662 1.97489,0.0273 0.0184,-7.96875 -1.92057,-0.0144 z"
         sodipodi:nodetypes="cccccccccccccccccccccccccccccccccccccccccccccccccccccccccccccccccccccccccccccccccccccccccccccccccccccccccccccccccccccccccccccccccccccccccccccccccccccccccccccccccccccccccccccccccccccccccccc" />
      <path
         id="path1083"
         style="font-variation-settings:normal;opacity:1;vector-effect:none;fill:#000000;fill-opacity:1;stroke:none;stroke-width:0.618806;stroke-linecap:butt;stroke-linejoin:miter;stroke-miterlimit:4;stroke-dasharray:none;stroke-dashoffset:21.5787;stroke-opacity:1;paint-order:markers stroke fill;stop-color:#000000;stop-opacity:1"
         d="m 152.26771,159.51068 c 1.46163,1.11394 3.22643,1.93765 4.8036,2.76276 0.30402,-3.13373 1.67869,-7.39297 1.67869,-7.39297 0.63024,0.0601 1.33846,0.86418 1.54044,1.77542 0.88795,4.00592 0.85617,7.31796 0.85617,7.31796 l 3.84849,0.61636 c 1.12755,-2.77376 2.96807,-6.88462 4.7519,-10.85976 1.91596,-4.26959 3.79193,-8.38261 5.41476,-10.51408 -2.04827,-0.49467 -4.0634,-1.13022 -6.06668,-1.81608 0,0 -3.67936,9.40063 -4.73769,11.45115 0,0 -1.33369,-3.89643 -1.73057,-9.9157 l -5.19171,-1.73057 c -1.82411,6.64165 -3.24974,12.59931 -5.1674,18.30551 z m -7.77524,-24.57886 c -0.45169,0.0121 -0.90295,0.0662 -1.34617,0.16949 -1.59231,0.37097 -3.41651,2.34775 -3.93774,4.7377 -0.64267,2.9468 -0.14966,6.11154 0.28938,7.86773 0.46699,1.86797 1.46024,4.34211 2.81689,5.93091 0.95325,1.11638 2.53035,1.70083 3.70778,1.73943 1.79578,0.0589 3.84611,-1.34981 5.37332,-4.07107 0.89921,-1.60224 1.7897,-3.68122 1.87637,-6.12521 0.13778,-3.88527 -1.08235,-6.79285 -3.49126,-8.55865 -1.36499,-1.00058 -3.33126,-1.74257 -5.28857,-1.69033 z m 5.03018,9.10073 c 0.21493,2.60964 -0.73161,5.27063 -2.74505,5.45703 -2.11202,0.19552 -3.50573,-1.52135 -3.77031,-4.53099 -0.26458,-3.00963 0.70212,-5.27789 2.88946,-5.28697 2.18733,-0.009 3.45472,2.28226 3.6259,4.36093 z M 41.95351,128.29914 c -4.096924,0.0966 -6.167125,1.27579 -11.122834,1.07332 -0.833157,8.61033 -2.373961,15.94827 -4.723226,22.94227 l 7.01611,2.88975 -0.121957,-5.48959 8.951907,1.51205 1.414386,6.14692 6.146911,-4.29277 c -3.14211,-7.88758 -5.307584,-16.36133 -7.561297,-24.78195 z m -4.250901,5.4715 c 1.268499,3.97206 2.65041,7.2249 2.690791,11.21069 -3.089069,0.11001 -3.683781,-0.50967 -5.657019,-0.82786 -0.171829,-3.55093 0.381098,-6.98081 1.310513,-10.3482 z M 136.92963,86.273287 c -12.70161,0.792319 -23.60401,0.780963 -37.651969,2.296499 -1.055939,1.207878 -1.628899,3.34858 -2.537831,4.943369 -2.793878,4.902073 -5.180681,9.695075 -8.52661,14.240995 -1.496917,-0.0815 -2.324754,-2.14556 -3.093352,-3.33572 -2.974822,-4.606472 -4.539663,-9.954048 -7.122046,-14.779974 -10.474492,0.741527 -21.086802,1.997335 -31.458546,3.621485 1.766988,5.849305 2.39617,12.066069 2.304254,18.157549 -0.108225,7.17231 -0.36299,14.36784 0.223758,21.5222 0.866516,10.56564 2.579582,16.41829 2.892848,21.03179 0.17444,2.56896 -1.506709,5.00477 -3.789949,6.18618 -1.805165,0.93405 -3.675087,2.05043 -5.749521,2.03554 -3.011807,-0.0216 -5.07393,-2.53226 -7.559746,-3.86953 -1.569447,-0.8443 -3.691591,-0.71901 -5.110281,0.34571 -1.526146,1.14537 -0.495843,3.32297 0.426331,4.55683 1.181261,1.58052 2.193075,2.30124 5.144905,2.04019 3.157466,-0.27925 3.566141,-0.99514 5.334042,-0.71779 2.086978,0.32741 -0.05967,2.54054 -1.462445,3.38532 -1.538777,0.9267 -2.341393,2.61838 0.208256,3.27061 1.813603,0.46393 4.53906,0.0392 5.126302,-1.9296 0.227571,-0.76296 -0.02936,-2.26565 0.548804,-2.8267 0.291701,-0.28308 0.983076,-0.31426 1.551845,0.13539 1.31187,1.03712 0.298231,3.05749 -0.254767,4.39973 -0.75189,1.825 0.340341,3.97411 2.700612,2.64325 1.725602,-0.973 -0.429051,-3.65776 1.707904,-3.98425 1.937584,-0.29603 1.316882,1.98646 1.586984,3.25716 0.221163,1.04047 1.144315,1.37903 2.032434,1.08727 0.711507,-0.23373 1.012161,-1.1323 0.607716,-2.04638 -0.407598,-0.92121 -0.883419,-1.41394 -0.968933,-2.13424 -0.107844,-0.90842 0.306374,-1.59946 1.332736,-1.00097 1.260136,0.73481 1.720156,2.77063 3.923789,2.04225 1.189691,-0.39324 2.309172,-1.11988 3.287138,-1.96939 0.769702,-0.66859 1.47955,-1.37624 1.877407,-2.30993 0.646702,-1.51769 0.191825,-3.98357 1.577681,-4.78369 0.972839,-0.56167 2.908072,-0.6678 4.43642,-0.67128 1.378373,-0.003 2.558052,0.65005 3.726904,1.27951 1.685283,0.90757 3.078816,1.47734 5.521627,1.17357 1.835012,-0.22819 4.335875,0.21962 5.345927,-1.76682 0.776462,-1.52704 1.077849,-3.81499 -0.136424,-5.25549 -1.813139,-2.15095 -4.548227,-3.03689 -5.493724,-5.81308 -0.568341,-1.66878 -0.533633,-3.5576 -0.575156,-5.32164 -0.08887,-3.77553 0.359666,-11.93054 0.359666,-11.93054 0,0 1.778315,2.04346 2.421041,2.81843 2.837095,3.42088 4.693764,7.75957 7.719425,10.86704 1.747425,-3.56149 4.990621,-6.03338 6.853846,-9.77718 0.919393,-1.84735 3.502628,-5.35161 3.502628,-5.35161 0,0 0.58386,2.62067 0.73432,3.70003 0.36955,2.65092 0.36687,5.60306 0.46561,8.28012 0.0954,2.58616 0.29793,4.89688 0.32246,7.48016 0.0315,3.31516 -3.170974,6.11979 -5.295287,9.54619 -1.045551,1.68642 -2.102956,4.11527 -0.848527,5.90351 1.265447,1.80395 3.649462,1.64892 5.663224,1.85364 2.18978,0.2226 4.70216,0.49268 6.84868,-0.002 1.60374,-0.36962 2.25194,-2.02637 3.91914,-2.4412 2.69174,-0.66975 5.30642,0.4799 6.82077,3.25665 0.80763,1.48091 2.40438,2.26956 4.05298,2.50218 1.52128,0.21465 3.05347,0.24544 4.58266,0.3085 0.3155,1.39128 -1.48618,3.07172 -0.42426,4.58577 1.15342,1.64451 4.30001,1.3232 4.747,-0.81028 0.34494,-1.64638 -0.97615,-3.92506 0.26355,-5.15731 0.41658,-0.41408 1.02101,-0.2927 1.51515,-0.26148 1.23453,0.078 2.27036,1.06359 1.55805,2.51044 -0.79889,1.6227 -0.30005,4.98996 0.66972,5.595 1.6569,1.03375 3.56004,-0.67434 3.93671,-2.48563 0.45123,-2.16978 0.0739,-3.63447 -0.65835,-5.54075 -0.38554,-1.00366 0.0938,-1.8855 0.91674,-2.03863 0.77977,-0.14511 1.89194,0.38558 2.02726,1.32911 0.23748,1.65587 0.15086,3.36918 0.76068,4.99608 0.8183,2.18311 2.8284,2.27686 4.75113,2.27686 2.75313,0 3.76704,-0.67747 2.85409,-2.84479 -0.9649,-2.29063 -2.6648,-3.15103 -3.53932,-5.08134 -0.86364,-1.90629 1.60122,-1.29173 3.29437,-0.31419 2.26371,1.30695 2.22977,3.54439 6.20893,4.80332 1.40571,0.44475 2.93737,0.55391 4.44055,0.4284 1.26294,-0.10545 2.51957,-0.33527 3.52899,-1.07694 1.39944,-1.02823 0.11537,-3.18315 -1.07436,-4.06745 -1.61738,-1.20216 -3.06754,-2.17847 -5.15162,-2.20348 -1.97412,-0.0237 -4.29923,-0.18344 -6.19859,-0.88057 -2.04561,-0.75081 -3.65839,-2.20794 -5.22139,-3.68401 -2.71435,-2.56341 -6.87994,-5.75451 -8.38088,-7.74578 -0.78259,-1.03825 -0.88571,-4.30844 -1.00769,-6.36654 -0.61912,-10.44594 -0.16749,-20.69073 -0.66042,-31.1428 0.70921,-1.10793 1.36454,-1.98052 2.65151,-3.10368 1.38917,-1.21235 3.88775,-3.66478 6.35517,-6.05235 2.46742,-2.38756 4.93952,-4.7299 5.99033,-5.51801 1.31676,-0.98757 2.39941,-2.45915 2.9745,-4.124812 0.5751,-1.665663 0.62735,-3.563373 -0.25011,-5.261691 -0.43325,-0.838566 -1.20743,-1.345309 -1.99213,-1.703256 -0.7847,-0.357947 -1.6158,-0.568073 -2.29857,-0.699182 -1.06373,-0.204264 -2.03306,-0.198059 -2.86752,-0.04651 -0.83433,0.151519 -1.53647,0.442947 -2.07585,0.847492 -0.5549,0.416177 -2.02746,1.216319 -3.70313,2.412257 -1.67566,1.195938 -3.59969,2.831314 -5.23069,5.099431 -0.12761,0.177451 -0.3545,0.517279 -0.3545,0.517279 -0.0312,-0.95299 -0.12277,-1.906911 -0.0775,-2.859257 0.21692,-4.565311 1.57777,-6.882577 1.6645,-10.480495 z m 11.11611,5.182629 c 0.42865,0.0046 0.88754,0.04908 1.37201,0.142111 1.28101,0.245985 3.11009,0.802999 3.71192,1.967838 1.51227,2.926974 -0.14664,6.585415 -2.48822,8.341605 -2.34158,1.75618 -9.7074,9.26909 -12.39046,11.61066 -2.68306,2.34158 -2.89815,3.65996 -5.69887,7.76232 -2.26754,3.32136 -2.93688,5.79831 -5.23844,7.5768 -3.08696,2.38538 -5.75291,2.29169 -7.99797,1.30948 -2.24507,-0.98222 -5.42551,-10.05606 -5.42551,-14.12524 0,-4.58583 1.41409,-5.73007 3.04013,-6.87503 0.99462,-0.70035 1.85621,-1.08772 2.58796,-0.99012 1.93421,0.25792 1.02422,5.19501 1.26813,7.87807 0.24392,2.68306 0.50114,5.72895 1.65882,5.95158 0.58718,0.11292 1.66887,-1.81377 3.06751,-4.17236 1.62254,-2.7362 2.21884,-2.98208 3.75016,-6.63112 0.63315,-1.50876 1.45015,-3.94048 2.35335,-5.09943 0.85472,-1.09676 1.4415,-1.60075 2.83031,-3.57394 0.50643,-0.71953 1.09069,-1.78851 1.92495,-2.948656 3.12211,-4.341685 7.39167,-6.307404 8.7576,-7.331852 0.61675,-0.462563 1.63068,-0.806643 2.91662,-0.792716 z M 122.0835,92.65636 c 0.57254,0.0041 1.16696,0.06644 1.72238,0.139525 1.17872,0.155096 2.41671,1.474412 2.66495,3.446301 0.12606,1.00143 0.0438,2.606464 -0.73535,3.594614 -0.59717,0.75736 -1.75786,1.73985 -2.61845,2.37763 -1.95231,1.44685 -3.61588,2.0074 -4.36252,2.46187 -1.07576,0.65481 -5.5664,3.78959 -6.31435,4.25607 -1.96891,1.22797 -2.16119,1.82678 -2.97242,2.2412 -0.86627,0.44253 -1.06191,0.17582 -1.42421,0.65888 -0.70159,0.93545 1.26295,9.91564 1.54358,12.58166 0.28063,2.66601 1.47179,6.15777 1.53789,7.14995 0.0661,0.99219 -0.13229,4.36563 -3.30729,4.82865 -3.175,0.46302 -3.37344,-0.8599 -3.90261,-3.24115 -0.52916,-2.38125 0.13229,-4.03489 -0.33073,-5.02708 -0.46303,-0.99219 -0.99213,-5.4901 -1.05833,-6.81302 -0.0662,-1.32292 -1.19062,-5.35781 -1.19062,-6.68073 0,-1.32292 -0.77464,-2.13217 -1.766821,-1.99988 -0.992187,0.13229 -3.326413,1.80144 -5.244642,2.79363 -1.918229,0.99219 -6.482291,4.29947 -7.077604,4.96094 -0.595312,0.66146 -0.463021,2.64583 -1.389062,3.175 -0.926042,0.52915 -3.042706,0.19838 -4.960938,0.26458 -1.918226,0.0662 -2.513541,-2.51354 -2.778125,-3.175 -0.264583,-0.66146 2.070674,-4.17132 3.459737,-4.76663 1.389062,-0.59532 2.427242,-0.062 3.41943,-0.3266 0.992187,-0.26458 1.256771,-0.99219 2.778125,-1.78594 1.521354,-0.79375 4.056816,-1.76306 7.0559,-2.96571 1.635577,-0.65587 1.883505,-1.32821 3.011186,-2.35334 0.700902,-0.63716 1.747814,-1.34645 2.086176,-1.95131 0.259248,-0.46342 -0.209045,-2.70281 0.02325,-4.30309 0.420958,-2.899881 1.726278,-3.798183 3.516068,-3.57446 0.70742,0.08843 1.56125,1.50643 2.12855,2.8329 0.63295,1.48 0.86687,2.76283 1.05472,3.08818 0.23062,0.39946 2.71388,0.45971 4.30413,-1.15393 1.42086,-1.44175 5.48084,-2.80348 6.34897,-3.671611 0.64321,-0.643204 0.75642,-2.431147 1.97559,-5.7366 0.39138,-1.061143 1.54385,-1.334431 2.80344,-1.325499 z m -57.885353,37.59409 c 2.097667,8.24431 2.04896,17.56169 3.512447,21.46432 l -3.219442,0.73174 c -2.2225,-2.00741 -5.190185,-6.03931 -7.805208,-7.12205 0.468363,4.7458 0.838025,8.18029 1.53634,11.29337 l -4.341336,0.51211 c 0,0 -1.175377,-15.86118 -1.244367,-22.00124 0.823579,-0.53274 1.697738,-0.81434 2.585886,-1.02423 0,0 4.994498,8.1022 6.512264,9.58547 0.13798,-5.94536 -1.048613,-5.58566 -1.390094,-11.1957 1.284615,-0.94492 2.568895,-1.5599 3.85351,-2.24379 z m 4.515488,0.96738 5.898348,0.27595 1.311029,22.35264 c -1.694968,0.48503 -3.168182,0.53927 -4.541324,0.43615 -0.439044,-3.21967 -2.668053,-23.06474 -2.668053,-23.06474 z m 46.953725,1.28777 c 7.14184,2.3408 11.18455,2.36627 17.67851,3.47473 -0.1695,1.29812 -0.56262,2.6351 -1.19115,3.915 l -5.58932,-1.40301 c -0.74835,1.82411 -1.84787,14.05152 -2.89956,18.42833 -1.40538,-0.15035 -2.73371,-0.35855 -3.78892,-0.77153 0,0 2.1753,-13.28343 2.31562,-18.05419 -2.71172,-0.25885 -5.46093,-0.46226 -7.81141,-1.26297 z m -1.57717,8.89869 c 0,0 4.67051,17.62856 5.15834,21.23849 l -4.44985,0.0687 -1.70791,-6.29522 c -2.56986,-0.27596 -6.31227,-1.13843 -6.31227,-1.13843 l -2.15595,7.12359 -3.69073,-0.62115 c 0.19514,-2.14645 4.35663,-15.57792 5.38107,-21.04159 z m -4.81624,2.94452 c -0.70243,2.65059 -1.45852,5.2344 -1.65881,8.51266 1.51718,0.069 3.08489,0.0119 4.73201,-0.24391 l -1.02475,-8.1225 z m 23.60579,2.25878 c 0,0 1.30691,14.77377 2.0345,18.14721 -1.54348,0.0113 -3.08673,0.0388 -4.6302,0.23409 -1.16931,-6.08038 -1.66037,-18.26451 -1.66037,-18.26451 z"
         sodipodi:nodetypes="ccccccccccccccccccccccccccccccccccccccccccccccccccccccccccccccccccccccccccccccccccccccccccccccccccccccccccccccccccccccccccccccccccccccccccccccccccccccccccccccccccccccccccccccccccccccccccccccccccccccccccccccccccccccccccccccccccccccccccccccc" />
    </g>
  </g>
</svg>
