<?xml version="1.0" encoding="UTF-8" standalone="no"?>
<svg
   width="110.92667mm"
   height="119.57917mm"
   viewBox="0 0 110.92666 119.57917"
   version="1.1"
   id="svg841"
   inkscape:version="1.3.2 (091e20e, 2023-11-25, custom)"
   sodipodi:docname="MTV_Unplugged_1989.svg"
   inkscape:export-filename="C:\Users\tjdru\OneDrive\Pictures\Logos\TV\mtvunpluggedlogo1989.png"
   inkscape:export-xdpi="212.41158"
   inkscape:export-ydpi="212.41158"
   xmlns:inkscape="http://www.inkscape.org/namespaces/inkscape"
   xmlns:sodipodi="http://sodipodi.sourceforge.net/DTD/sodipodi-0.dtd"
   xmlns:xlink="http://www.w3.org/1999/xlink"
   xmlns="http://www.w3.org/2000/svg"
   xmlns:svg="http://www.w3.org/2000/svg"
   xmlns:rdf="http://www.w3.org/1999/02/22-rdf-syntax-ns#"
   xmlns:cc="http://creativecommons.org/ns#"
   xmlns:dc="http://purl.org/dc/elements/1.1/">
  <defs
     id="defs835">
    <linearGradient
       inkscape:collect="always"
       id="linearGradient6689">
      <stop
         style="stop-color:#d7c165;stop-opacity:1"
         offset="0"
         id="stop6685" />
      <stop
         style="stop-color:#d7c165;stop-opacity:1"
         offset="0.79390281"
         id="stop6691" />
      <stop
         style="stop-color:#b4463d;stop-opacity:1"
         offset="1"
         id="stop6687" />
    </linearGradient>
    <linearGradient
       inkscape:collect="always"
       id="linearGradient2407">
      <stop
         style="stop-color:#d8c144;stop-opacity:1"
         offset="0"
         id="stop2403" />
      <stop
         style="stop-color:#7f6a27;stop-opacity:1"
         offset="1"
         id="stop2405" />
    </linearGradient>
    <clipPath
       id="clipPath1175"
       clipPathUnits="userSpaceOnUse">
      <path
         id="path1177"
         d="M 33.202782,133.5783 H 68.290046 L 82.0644,147.40692 95.786043,133.5783 h 36.566237 v 26.38806 c -0.24136,0.35977 -0.49496,0.73695 -0.72967,1.08417 -1.33586,1.97625 -2.94077,4.10313 -3.83439,6.58978 -0.77659,2.16099 -1.91414,3.67122 -3.06596,5.91333 -0.55246,1.0754 -1.19876,2.88003 -1.8619,3.93413 -0.28022,0.44541 -0.46838,0.55424 -0.48369,0.59324 -0.0619,-0.0619 -0.12796,-0.11153 -0.25993,-0.3452 -1.14568,-2.02833 -1.46413,-5.09189 -1.72393,-7.71425 -0.0978,-0.98706 -0.003,-2.66261 -0.34055,-4.24316 -0.16859,-0.79027 -0.45405,-1.5899 -1.02681,-2.25877 -0.57276,-0.66887 -1.45313,-1.14279 -2.49235,-1.24696 -1.27844,-0.12814 -2.79609,0.0328 -4.15737,0.61444 -1.36129,0.58161 -2.65524,1.73963 -2.79777,3.45353 -0.32019,3.85043 1.24813,8.03893 2.27118,11.20811 1.71274,5.3056 2.91009,10.2239 4.97231,15.5515 0.45395,1.17276 1.07207,2.49073 2.06447,3.55637 0.99241,1.06565 2.46028,1.85366 4.23644,1.71876 1.58751,-0.12057 2.90376,-0.95416 3.80442,-2.03605 0.90066,-1.08189 1.43279,-2.41361 1.53892,-3.73621 0.2311,-2.87994 0.0852,-4.61756 1.27848,-6.93084 0.825,-1.59931 1.70467,-3.42897 2.6081,-5.15524 v 32.94631 H 96.063543 v -38.3403 L 81.935209,188.73101 68.930316,175.93076 v 37.53259 H 33.202782 Z"
         style="fill:#ffffff;fill-opacity:1;fill-rule:nonzero;stroke:none;stroke-width:0.122359"
         inkscape:connector-curvature="0" />
    </clipPath>
    <clipPath
       id="clipPath1823"
       clipPathUnits="userSpaceOnUse">
      <path
         style="fill:#000000;fill-opacity:1;fill-rule:nonzero;stroke:none;stroke-width:0.122359"
         d="M 50.369957,77.636645 H 85.456898 L 99.231373,91.46499 112.95298,77.636645 h 36.56625 V 157.52153 H 113.23056 V 119.18137 L 99.102468,132.78895 86.097351,119.98877 v 37.53276 H 50.369957 Z"
         id="path1825"
         inkscape:connector-curvature="0"
         sodipodi:nodetypes="ccccccccccccc" />
    </clipPath>
    <linearGradient
       inkscape:collect="always"
       xlink:href="#linearGradient2407"
       id="linearGradient2411"
       x1="254.10559"
       y1="130.4631"
       x2="262.31744"
       y2="134.05846"
       gradientUnits="userSpaceOnUse"
       gradientTransform="matrix(0.67168397,0,0,0.67168397,90.840682,15.707013)" />
    <linearGradient
       id="linearGradient3840"
       inkscape:swatch="solid">
      <stop
         style="stop-color:#000000;stop-opacity:1;"
         offset="0"
         id="stop3842" />
    </linearGradient>
    <clipPath
       clipPathUnits="userSpaceOnUse"
       id="clipPath6677">
      <path
         id="path6679"
         style="display:inline;fill:#b4463d;fill-opacity:1;fill-rule:evenodd;stroke:none;stroke-width:1.40152;stroke-linecap:square;stroke-linejoin:round;stroke-miterlimit:4;stroke-dasharray:none;stroke-dashoffset:0;stroke-opacity:1;paint-order:stroke markers fill"
         d="m 227.3424,92.199656 c -0.33326,1.506559 -0.50643,3.051511 -0.50643,4.626076 1e-5,4.808148 0.74736,9.592258 3.74654,13.934028 6.11086,8.84642 18.78386,15.68886 31.0317,17.43666 l -1.27744,-6.4425 c -4.73008,-0.9256 -8.65823,-3.12537 -12.7062,-8.53333 -2.15206,-2.87506 -4.59188,-7.09333 -4.64881,-15.134989 z m 79.48145,1.689304 a 11.426692,8.2682294 0 0 1 -9.92342,4.169254 11.426692,8.2682294 0 0 1 -6.12366,-1.287778 c 0.17653,2.513156 -0.0836,6.188924 -0.43046,7.419184 -2.85801,10.13484 -9.69724,16.04956 -17.13487,17.73897 l -1.34824,6.45129 c 12.88006,-1.46396 25.47655,-9.14319 31.44872,-17.82837 2.83546,-4.12352 3.71812,-9.15606 3.71812,-13.725262 0,-0.991733 -0.0715,-1.971236 -0.20619,-2.937288 z" />
    </clipPath>
    <radialGradient
       inkscape:collect="always"
       xlink:href="#linearGradient6689"
       id="radialGradient6683"
       cx="209.51863"
       cy="198.34587"
       fx="209.51863"
       fy="198.34587"
       r="151.54785"
       gradientTransform="matrix(5.5642741e-4,0.77452883,-0.92709134,6.6602681e-4,393.18039,111.28736)"
       gradientUnits="userSpaceOnUse" />
    <radialGradient
       inkscape:collect="always"
       xlink:href="#linearGradient6689"
       id="radialGradient8759"
       gradientUnits="userSpaceOnUse"
       gradientTransform="matrix(5.564274e-4,0.77452882,-0.92709133,6.660268e-4,393.18039,111.28736)"
       cx="209.51863"
       cy="198.34587"
       fx="209.51863"
       fy="198.34587"
       r="151.54785" />
    <radialGradient
       inkscape:collect="always"
       xlink:href="#linearGradient6689"
       id="radialGradient8786"
       gradientUnits="userSpaceOnUse"
       gradientTransform="matrix(5.564274e-4,0.77452882,-0.92709133,6.660268e-4,393.18039,111.28736)"
       cx="209.51863"
       cy="198.34587"
       fx="209.51863"
       fy="198.34587"
       r="151.54785" />
  </defs>
  <sodipodi:namedview
     id="base"
     pagecolor="#ffffff"
     bordercolor="#666666"
     borderopacity="1.0"
     inkscape:pageopacity="0.0"
     inkscape:pageshadow="2"
     inkscape:zoom="1"
     inkscape:cx="192.92341"
     inkscape:cy="241.95171"
     inkscape:document-units="mm"
     inkscape:current-layer="g3673"
     showgrid="false"
     inkscape:snap-global="false"
     inkscape:window-width="1440"
     inkscape:window-height="837"
     inkscape:window-x="-8"
     inkscape:window-y="-8"
     inkscape:window-maximized="1"
     inkscape:document-rotation="0"
     inkscape:object-paths="false"
     showguides="true"
     inkscape:guide-bbox="true"
     inkscape:snap-bbox="false"
     inkscape:bbox-paths="false"
     inkscape:bbox-nodes="true"
     inkscape:snap-smooth-nodes="false"
     inkscape:showpageshadow="0"
     inkscape:pagecheckerboard="0"
     inkscape:deskcolor="#d1d1d1" />
  <metadata
     id="metadata838">
    <rdf:RDF>
      <cc:Work
         rdf:about="">
        <dc:format>image/svg+xml</dc:format>
        <dc:type
           rdf:resource="http://purl.org/dc/dcmitype/StillImage" />
        <dc:title />
      </cc:Work>
    </rdf:RDF>
  </metadata>
  <g
     inkscape:groupmode="layer"
     id="layer2"
     inkscape:label="Layer 1"
     style="display:inline;opacity:1"
     transform="translate(-211.48005,-20.800127)">
    <g
       id="g8784">
      <path
         inkscape:connector-curvature="0"
         id="rect1612"
         d="m 262.39383,20.800127 c -8.10386,0 -19.74482,0.419886 -28.15728,5.380086 -7.47651,4.192916 -11.17456,11.432454 -10.38981,18.879937 0.56631,5.374468 3.80705,8.782752 6.16105,14.748376 0.54171,1.372806 0.14868,2.859515 -0.47656,4.250615 -0.70857,1.022678 -1.02928,1.539026 -1.31448,1.856303 -9.7945,10.896319 -17.00676,19.269907 -16.72894,33.273923 -0.0881,8.670013 2.80439,16.352763 7.19994,21.664733 3.35155,4.05028 8.31015,7.55353 13.52762,10.23188 8.36061,4.29186 19.58252,6.54664 29.07492,6.56787 l 0.55224,2.72545 h 9.93451 l 0.56578,-2.72545 c 9.4924,-0.0213 20.9678,-2.27601 29.32842,-6.56787 5.21747,-2.67835 10.17607,-6.1816 13.52761,-10.23188 4.39557,-5.31197 7.28805,-12.99471 7.19995,-21.664733 0.27783,-14.004009 -6.78935,-22.377604 -16.58386,-33.273923 -0.2852,-0.317277 -0.60591,-0.833625 -1.31448,-1.856303 -0.62523,-1.391098 -1.01827,-2.588327 -0.47657,-3.961133 2.354,-5.965626 5.7395,-9.66339 6.30581,-15.037858 0.78475,-7.447481 -2.91331,-14.68702 -10.38981,-18.879937 -8.41248,-4.9602 -20.63273,-5.380086 -28.7366,-5.380086 z"
         style="fill:#000000;fill-opacity:1;fill-rule:evenodd;stroke:none;stroke-width:1.01807;stroke-linecap:square;stroke-linejoin:round;stroke-miterlimit:4;stroke-dasharray:none;stroke-dashoffset:0;stroke-opacity:1;paint-order:stroke markers fill"
         sodipodi:nodetypes="ccccccccccccccccccccccc" />
      <path
         id="rect1461"
         d="m 266.15334,29.770562 v 3.322462 h -1.57065 v -3.318305 c -0.58407,0.003 -1.14305,0.0063 -1.85595,0.0094 v 3.308926 h -1.57063 V 29.79488 c -0.58184,0.0057 -1.18089,0.0136 -1.80841,0.02846 v 3.269704 h -1.57029 v -3.217982 c -2.0699,0.08562 -4.29636,0.254929 -6.51615,0.607082 -5.0501,0.801163 -8.32546,2.166318 -13.20099,5.608479 -3.47564,3.200679 -6.30614,7.095942 -5.07881,13.068403 0.97198,4.729868 5.25437,8.697553 5.74628,14.787252 7.92151,-4.436123 14.29359,-6.463613 19.04967,-7.401263 V 53.52939 h 1.5703 v 2.735513 c 0.63837,-0.102649 1.23897,-0.183963 1.8084,-0.250955 V 53.52939 h 1.57063 v 2.332181 c 0.69235,-0.05501 1.295,-0.08414 1.85595,-0.105519 V 53.52939 h 1.57065 v 2.182232 c 0.61254,-0.03385 1.26091,-0.03585 1.80841,-0.0042 V 53.52937 h 1.57063 v 2.215901 c 0.55143,0.0191 1.1705,0.0494 1.85596,0.101702 V 53.52937 h 1.57064 v 2.471367 c 0.56657,0.06462 1.17225,0.147195 1.80839,0.247139 V 53.52937 h 1.57064 v 2.995493 c 4.76772,0.922493 11.17625,2.937567 19.18295,7.421394 0.49191,-6.089697 4.77429,-10.057384 5.74628,-14.787252 1.22733,-5.972461 -1.60317,-9.867724 -5.0788,-13.068403 -4.87554,-3.442161 -8.15089,-4.807316 -13.20099,-5.608479 -2.26787,-0.359782 -4.54403,-0.530947 -6.64944,-0.614371 v 3.225274 h -1.57064 v -3.272827 c -0.62382,-0.01388 -1.23254,-0.02319 -1.80839,-0.02777 v 3.300596 h -1.57064 v -3.30963 c -0.65779,-0.003 -1.30691,-0.0061 -1.85596,-0.009 v 3.318644 h -1.57063 V 29.77092 Z m -18.20586,3.220754 c 1.06789,-6.6e-5 1.93364,0.85574 1.9337,1.911493 -6e-5,1.055753 -0.86581,1.911558 -1.9337,1.911492 -0.83128,-7.15e-4 -1.56906,-0.526626 -1.83235,-1.306146 -1.07939,0.883644 -2.66802,1.793594 -1.72372,5.484216 0.47827,1.610707 0.90661,2.837496 1.28532,3.831662 l -2.31968,1.680323 c -0.78221,-1.811001 -1.49621,-3.748069 -1.52136,-5.667833 -0.14179,-3.460725 1.46446,-5.322383 4.20029,-6.206884 0.13728,-0.9396 0.95124,-1.637233 1.9115,-1.638323 z m 38.38187,0 c 0.96026,0.0011 1.77421,0.698727 1.91149,1.638323 2.73584,0.884501 4.34208,2.746159 4.20027,6.206884 -0.0251,1.919764 -0.73913,3.856832 -1.52134,5.667833 l -2.31969,-1.680323 c 0.37872,-0.994166 0.80707,-2.220955 1.28534,-3.831662 0.94431,-3.69062 -0.64434,-4.60057 -1.72372,-5.484216 -0.26329,0.77952 -1.00107,1.305431 -1.83235,1.306146 -1.0679,7.6e-5 -1.93366,-0.855731 -1.93372,-1.911492 6e-5,-1.055761 0.86582,-1.911569 1.93372,-1.911493 z m -40.28018,12.780308 c 0.95655,2.357916 1.51593,3.249253 1.63173,5.68866 -0.21374,1.874809 -1.13157,3.427386 -4.50574,4.031941 -0.17597,0.898463 -0.95049,1.54574 -1.85074,1.546685 -1.04331,-1.07e-4 -1.88901,-0.860874 -1.88894,-1.922599 -7e-5,-1.061726 0.84563,-1.922493 1.88894,-1.9226 0.92689,0.0012 1.71602,0.686516 1.86289,1.617845 1.00911,-0.497589 1.86085,-1.120999 2.20445,-2.150994 0.12081,-1.403082 -0.73,-3.220145 -1.62895,-5.232567 z m 42.17848,0 2.28636,1.656371 c -0.89894,2.012422 -1.74976,3.829485 -1.62896,5.232567 0.3436,1.029995 1.19535,1.653405 2.20445,2.150994 0.14687,-0.931333 0.93601,-1.616665 1.8629,-1.617845 1.04331,1.12e-4 1.889,0.860878 1.88893,1.9226 7e-5,1.061721 -0.84562,1.922487 -1.88893,1.922599 -0.90025,-9.45e-4 -1.67477,-0.648222 -1.85074,-1.546685 -3.37418,-0.604555 -4.29201,-2.157132 -4.50574,-4.031941 0.11579,-2.439405 0.67516,-3.330744 1.63173,-5.68866 z"
         style="fill:#b4463d;fill-opacity:1;fill-rule:evenodd;stroke:none;stroke-width:1.238;stroke-linecap:square;stroke-linejoin:round;stroke-miterlimit:4;stroke-dasharray:none;stroke-dashoffset:0;stroke-opacity:1;paint-order:stroke markers fill"
         inkscape:connector-curvature="0"
         sodipodi:nodetypes="ccccccccccccccccccccccccccccccccccccccccccccccccccccccccccccccccccccccccccccccccccccccccccccccccc" />
      <path
         inkscape:connector-curvature="0"
         id="rect1612-2"
         d="m 262.3442,22.049002 c -7.93459,0 -19.33255,0.411037 -27.5693,5.267623 -7.32033,4.105331 -10.98637,11.732419 -9.63418,19.024332 1.16793,4.14327 3.64642,7.334475 5.98718,13.187456 0.53657,1.341673 0.49584,2.858289 -0.34989,4.570645 -0.32925,0.663945 -1.09987,1.764663 -1.69559,2.518227 -9.58991,10.668705 -16.31289,18.626087 -16.58073,32.183323 -0.0863,8.488912 2.74555,16.011112 7.0493,21.212112 3.28153,3.96568 8.13659,7.396 13.24508,10.01841 8.18596,4.20221 20.12582,6.40963 29.41994,6.43043 l 0.53418,2.67163 h 8.10008 l 0.44984,-2.67163 c 9.29415,-0.0209 21.31498,-2.22822 29.50095,-6.43043 5.10847,-2.62241 9.96354,-6.05273 13.24506,-10.01841 4.30375,-5.201 7.13555,-12.72319 7.04931,-21.212112 0.27203,-13.711475 -6.41603,-21.292821 -16.00594,-31.961526 -0.27924,-0.310649 -0.59293,-0.816459 -1.2867,-1.817774 -1.65757,-2.428427 -1.21174,-5.105312 -0.24887,-7.142672 2.09865,-4.82946 5.18607,-7.955935 5.57064,-13.233275 0.53698,-7.369035 -2.8751,-13.751447 -10.29333,-17.757406 -8.42658,-4.923326 -19.9273,-4.838953 -27.8619,-4.838953 z m 0.049,1.301285 h 8.44292 c 7.76712,0 20.33623,0.148891 28.97055,5.585224 5.71937,4.15276 8.97131,9.468081 8.07081,15.686248 -0.83914,5.794565 -4.01558,8.611608 -5.8386,13.801829 -0.94257,1.994362 -1.14741,4.537795 0.47518,6.914971 0.67912,0.980184 2.14283,2.78616 2.41617,3.090254 7.22833,8.97838 14.23815,14.934885 14.97435,30.053503 0.16155,7.230164 -2.08419,14.891414 -6.36101,20.224614 -3.39334,4.23151 -4.72578,5.62049 -13.50505,10.34677 -8.16743,4.49909 -20.58725,6.27434 -29.68523,6.29469 l -0.44014,2.61507 h -6.1608 l -0.52309,-2.61507 c -10.40891,-0.0975 -21.97894,-2.10436 -30.68618,-6.83479 -5.00066,-2.56707 -8.82765,-5.38494 -12.03993,-9.26692 -4.21291,-5.09125 -6.60406,-12.55007 -6.51962,-20.859817 0.35742,-13.556833 6.88203,-20.239469 15.8886,-30.778254 0.58315,-0.737661 1.8065,-2.377191 2.22285,-3.309273 0.51436,-1.268668 0.97747,-3.202934 0.40889,-4.899349 -0.82283,-2.454925 -1.7544,-4.188084 -2.6359,-5.852145 -1.40216,-2.646927 -2.61703,-4.785004 -3.31899,-7.275266 -1.32367,-7.138021 1.61389,-13.592994 9.08817,-17.997254 8.06293,-4.754091 18.98891,-4.925035 26.75605,-4.925035 z"
         style="fill:#ffffff;fill-opacity:1;fill-rule:evenodd;stroke:none;stroke-width:0.996792;stroke-linecap:square;stroke-linejoin:round;stroke-miterlimit:4;stroke-dasharray:none;stroke-dashoffset:0;stroke-opacity:1;paint-order:stroke markers fill"
         sodipodi:nodetypes="ccccccccccccccccccccccccccccccccccccccccccccccc" />
      <path
         id="path2188"
         style="fill:url(#radialGradient8786);fill-opacity:1;fill-rule:evenodd;stroke:none;stroke-width:5.29708;stroke-linecap:square;stroke-linejoin:round;stroke-miterlimit:4;stroke-dasharray:none;stroke-dashoffset:0;stroke-opacity:1;paint-order:stroke markers fill"
         d="m 60.416016,264.85742 c -0.04149,0.18754 -0.07702,0.37661 -0.117188,0.56446 h 1.617188 z m 2.294922,0.86328 v 2.94532 h -3.03711 c -0.3214,1.87101 -0.576066,3.75727 -0.765625,5.65625 h 3.802735 v 3.24609 h -4.064454 c -0.09363,1.58298 -0.144531,3.17364 -0.144531,4.77344 10e-7,0.29436 0.0083,0.5885 0.0098,0.88281 h 4.199219 v 3.24414 h -4.150391 c 0.04794,1.88927 0.129004,3.77528 0.253906,5.6582 h 3.896485 v 3.24414 h -3.636719 c 0.176335,1.89243 0.406557,3.77795 0.68164,5.65821 h 2.955079 v 3.24414 H 60.28519 c 0.342176,1.89486 0.738427,3.78174 1.203125,5.6582 h 1.222657 v 3.24414 h -0.351563 c 1.56966,5.40119 3.712235,10.70863 6.599609,15.875 v -1.31445 h 6.253907 v 3.24414 h -5.123047 c 0.809935,1.35111 1.653545,2.6954 2.572265,4.02539 0.378284,0.54762 0.780401,1.08735 1.171875,1.63086 h 1.378907 v 1.88672 c 1.940956,2.57178 4.035579,5.09205 6.255859,7.56054 v -0.54492 h 6.246094 v 3.24414 h -3.744141 c 12.675261,13.28328 29.193693,24.87392 47.505853,33.85938 v -1.49414 h 6.25586 v 3.24414 h -2.60156 c 4.37981,2.04041 8.85229,3.92562 13.38867,5.65625 h 1.71485 v 0.65039 c 2.0737,0.76982 4.15932,1.50382 6.25585,2.20508 v -2.85547 h 6.2461 v 3.24609 h -5.05664 c 7.84945,2.57155 15.83046,4.6629 23.81445,6.19531 v -0.53906 H 187.75 v 1.61524 c 0.73245,0.114 1.46551,0.23737 2.19727,0.34179 l -3.27539,-16.51562 h -5.17774 v -3.24414 h 4.53516 l -0.91016,-4.58985 c -3.39455,-0.66425 -6.67906,-1.50485 -9.87891,-2.5664 v 1.49804 h -6.24804 v -3.24414 h 1.60547 c -3.66943,-1.51969 -7.24168,-3.37141 -10.7461,-5.6582 h -3.36133 v -2.34961 c -2.59789,-1.92373 -5.16927,-4.0894 -7.72656,-6.55273 h -4.7832 v -3.24414 h 1.57812 c -2.81995,-2.99641 -5.63399,-6.35546 -8.46289,-10.13477 -1.03626,-1.3844 -2.08993,-2.85523 -3.14062,-4.42383 h -2.47852 v -3.24609 h 0.41992 c -2.48835,-4.1034 -4.87154,-8.86994 -6.87695,-14.5586 h -6.04492 v -3.24414 h 4.97266 c -0.55021,-1.79337 -1.05422,-3.68579 -1.51954,-5.6582 h -3.45312 v -3.24414 h 2.74805 c -0.36279,-1.8182 -0.70001,-3.68653 -0.98047,-5.6582 h -1.76758 v -3.24414 h 1.35547 c -0.2056,-1.82319 -0.37863,-3.7036 -0.50781,-5.65821 h -0.84766 v -3.24414 h 0.67578 c -0.0682,-1.63145 -0.1128,-3.30085 -0.125,-5.02343 l -6.79687,-2.5586 v 1.92383 h -6.25586 v -3.24414 h 2.74609 l -15.029297,-5.65625 h -0.21875 v -0.082 l -6.255859,-2.35547 v 2.4375 H 81.46875 v -3.24609 h 4.095703 l -15.029297,-5.65625 h -1.576172 v -0.59375 z m 298.107422,5.52149 c -0.84868,1.07578 -1.79001,2.09829 -2.79297,3.08008 h 3.1582 c -0.1044,-1.03027 -0.22268,-2.05769 -0.36523,-3.08008 z m -291.859376,3.08008 h 6.253907 v 3.24609 h -6.253907 z m 287.589846,1.35742 c -4.98458,4.35276 -11.47547,7.62358 -18.75586,9.5 v 1.28906 h -6.25586 v -0.0469 c -2.6825,0.37656 -5.43324,0.57807 -8.22461,0.57812 -3.56885,-1.1e-4 -7.09816,-0.33912 -10.52539,-0.96289 v 0.43164 h -6.25391 v -1.94336 c -2.19845,-0.67123 -4.33388,-1.45947 -6.36523,-2.39258 0.0243,0.3464 0.0308,0.73438 0.0508,1.0918 h 0.0586 v 1.23633 c 0.12854,3.10195 0.12511,6.47476 0,9.81054 v 1.09961 h -0.0547 c -0.0879,1.96025 -0.20698,3.8671 -0.35938,5.65821 h 0.41406 v 3.24414 h -0.74023 c -0.27257,2.34835 -0.58797,4.33973 -0.93555,5.6582 h 1.67578 v 3.24414 h -2.63086 c -0.59716,1.93025 -1.23858,3.81266 -1.9121,5.6582 h 4.54296 v 3.24414 h -5.78125 c -2.08095,5.20867 -4.46449,10.06308 -7.11328,14.5586 h 0.39258 v 3.24609 h -2.39258 c -3.47712,5.41307 -7.34871,10.26533 -11.5332,14.5586 h 1.42383 v 3.24414 h -4.74024 c -2.49525,2.3007 -5.09087,4.40535 -7.76172,6.33593 v 2.56641 h -3.74414 c -3.38101,2.17045 -6.87382,4.05096 -10.44531,5.6582 h 1.68555 v 3.24414 h -6.25391 v -1.35156 c -3.36193,1.26668 -6.78044,2.29554 -10.23437,3.08008 l -0.82032,3.92969 h 4.79883 v 3.24414 h -5.47851 l -3.59571,17.20898 c 0.94341,-0.10723 1.8857,-0.2405 2.82813,-0.36523 v -2.28516 h 6.24609 v 1.34766 c 2.09179,-0.36185 4.17556,-0.77941 6.25586,-1.22266 v -0.125 h 0.58008 c 8.29039,-1.79704 16.47466,-4.21071 24.42383,-7.17187 v -1.73047 h 4.46094 c 4.31842,-1.73549 8.55889,-3.62758 12.70312,-5.65625 h -4.6543 v -3.24414 h 6.24805 v 2.44531 c 6.53104,-3.27291 12.80984,-6.88453 18.75781,-10.77539 v -0.57227 h 0.86524 c 4.04395,-2.67817 7.93261,-5.48094 11.63672,-8.39257 v -0.50977 h 0.6582 c 5.81768,-4.61938 11.16937,-9.50146 15.96484,-14.56055 h -4.12109 v -3.24414 h 6.25586 v 0.94532 c 2.22671,-2.46138 4.30644,-4.96347 6.25391,-7.49219 v -2.35547 h 1.77148 c 0.58627,-0.80399 1.17034,-1.60907 1.72656,-2.41797 0.73095,-1.063 1.42042,-2.14496 2.08399,-3.23828 h -5.58203 v -3.24414 h 6.24804 v 2.0957 c 3.07715,-5.29707 5.40766,-10.90652 7.12305,-16.65625 h -0.86914 v -3.24414 h 1.76953 c 0.48368,-1.87842 0.90751,-3.76474 1.27344,-5.6582 h -3.04297 v -3.24414 h 3.61523 c 0.30164,-1.8875 0.55972,-3.77511 0.75977,-5.65821 h -4.375 v -3.24414 h 4.67578 c 0.1477,-1.89804 0.23976,-3.78452 0.29883,-5.6582 h -4.97461 v -3.24414 h 5.03711 c 0.002,-0.29281 0.0117,-0.58902 0.0117,-0.88086 0,-1.60078 -0.0601,-3.19183 -0.15625,-4.77539 h -4.89258 z m -287.589846,7.54492 h 6.253907 v 3.24414 h -6.253907 z m 12.509766,0 h 6.246094 v 3.24414 H 81.46875 Z m 12.501953,0 h 6.248047 v 3.24414 h -6.248047 z m 250.076177,0 h 6.24804 v 3.24414 h -6.24804 z m -275.087896,8.90234 h 6.253907 v 3.24414 h -6.253907 z m 12.509766,0 h 6.246094 v 3.24414 H 81.46875 Z m 12.501953,0 h 6.248047 v 3.24414 h -6.248047 z m 12.501957,0 h 6.25586 v 3.24414 h -6.25586 z m 200.06054,0 h 6.25391 v 3.24414 h -6.25391 z m 12.50196,0 h 6.2539 v 3.24414 h -6.2539 z m 12.50195,0 h 6.25586 v 3.24414 h -6.25586 z m 12.50977,0 h 6.24804 v 3.24414 h -6.24804 z M 68.958984,301.0293 h 6.253907 v 3.24414 h -6.253907 z m 12.509766,0 h 6.246094 v 3.24414 H 81.46875 Z m 12.501953,0 h 6.248047 v 3.24414 h -6.248047 z m 12.501957,0 h 6.25586 v 3.24414 h -6.25586 z m 200.06054,0 h 6.25391 v 3.24414 h -6.25391 z m 12.50196,0 h 6.2539 v 3.24414 h -6.2539 z m 12.50195,0 h 6.25586 v 3.24414 h -6.25586 z m 12.50977,0 h 6.24804 v 3.24414 h -6.24804 z m -275.087896,8.90234 h 6.253907 v 3.24414 h -6.253907 z m 12.509766,0 h 6.246094 v 3.24414 H 81.46875 Z m 12.501953,0 h 6.248047 v 3.24414 h -6.248047 z m 12.501957,0 h 6.25586 v 3.24414 h -6.25586 z m 200.06054,0 h 6.25391 v 3.24414 h -6.25391 z m 12.50196,0 h 6.2539 v 3.24414 h -6.2539 z m 12.50195,0 h 6.25586 v 3.24414 h -6.25586 z m 12.50977,0 h 6.24804 v 3.24414 h -6.24804 z m -275.087896,8.90234 h 6.253907 v 3.24414 h -6.253907 z m 12.509766,0 h 6.246094 v 3.24414 H 81.46875 Z m 12.501953,0 h 6.248047 v 3.24414 h -6.248047 z m 12.501957,0 h 6.25586 v 3.24414 h -6.25586 z m 200.06054,0 h 6.25391 v 3.24414 h -6.25391 z m 12.50196,0 h 6.2539 v 3.24414 h -6.2539 z m 12.50195,0 h 6.25586 v 3.24414 h -6.25586 z m 12.50977,0 h 6.24804 v 3.24414 h -6.24804 z m -262.57813,8.90235 h 6.246094 v 3.24414 H 81.46875 Z m 12.501953,0 h 6.248047 v 3.24414 h -6.248047 z m 12.501957,0 h 6.25586 v 3.24414 h -6.25586 z m 12.50195,0 h 6.25586 v 3.24414 h -6.25586 z m 175.05469,0 h 6.24804 v 3.24414 h -6.24804 z m 12.5039,0 h 6.25391 v 3.24414 h -6.25391 z m 12.50196,0 h 6.2539 v 3.24414 h -6.2539 z m 12.50195,0 h 6.25586 v 3.24414 h -6.25586 z m -250.06836,8.90039 h 6.246094 v 3.24609 H 81.46875 Z m 12.501953,0 h 6.248047 v 3.24609 h -6.248047 z m 12.501957,0 h 6.25586 v 3.24609 h -6.25586 z m 12.50195,0 h 6.25586 v 3.24609 h -6.25586 z m 175.05469,0 h 6.24804 v 3.24609 h -6.24804 z m 12.5039,0 h 6.25391 v 3.24609 h -6.25391 z m 12.50196,0 h 6.2539 v 3.24609 h -6.2539 z m 12.50195,0 h 6.25586 v 3.24609 h -6.25586 z m -237.566407,8.90234 h 6.248047 v 3.24414 h -6.248047 z m 12.501957,0 h 6.25586 v 3.24414 h -6.25586 z m 12.50195,0 h 6.25586 v 3.24414 h -6.25586 z m 12.50195,0 h 6.25586 v 3.24414 h -6.25586 z m 150.05078,0 h 6.24805 v 3.24414 h -6.24805 z m 12.50196,0 h 6.24804 v 3.24414 h -6.24804 z m 12.5039,0 h 6.25391 v 3.24414 h -6.25391 z m 12.50196,0 h 6.2539 v 3.24414 h -6.2539 z m -225.064457,8.90235 h 6.248047 v 3.24414 h -6.248047 z m 12.501957,0 h 6.25586 v 3.24414 h -6.25586 z m 12.50195,0 h 6.25586 v 3.24414 h -6.25586 z m 12.50195,0 h 6.25586 v 3.24414 h -6.25586 z m 150.05078,0 h 6.24805 v 3.24414 h -6.24805 z m 12.50196,0 h 6.24804 v 3.24414 h -6.24804 z m 12.5039,0 h 6.25391 v 3.24414 h -6.25391 z m 12.50196,0 h 6.2539 v 3.24414 h -6.2539 z m -212.5625,8.90234 h 6.25586 v 3.24414 h -6.25586 z m 12.50195,0 h 6.25586 v 3.24414 h -6.25586 z m 12.50195,0 h 6.25586 v 3.24414 h -6.25586 z m 12.50391,0 h 6.25391 v 3.24414 h -6.25391 z m 125.03711,0 h 6.25586 v 3.24414 h -6.25586 z m 12.50976,0 h 6.24805 v 3.24414 h -6.24805 z m 12.50196,0 h 6.24804 v 3.24414 h -6.24804 z m 12.5039,0 h 6.25391 v 3.24414 h -6.25391 z m -187.55859,8.90234 h 6.25586 v 3.24414 h -6.25586 z m 12.50195,0 h 6.25586 v 3.24414 h -6.25586 z m 12.50391,0 h 6.25391 v 3.24414 h -6.25391 z m 12.50976,0 h 6.2461 v 3.24414 h -6.2461 z m 100.02539,0 h 6.25586 v 3.24414 h -6.25586 z m 12.50196,0 h 6.25586 v 3.24414 h -6.25586 z m 12.50976,0 h 6.24805 v 3.24414 h -6.24805 z m 12.50196,0 h 6.24804 v 3.24414 h -6.24804 z m -150.04883,8.90235 h 6.25391 v 3.24414 h -6.25391 z m 12.50976,0 h 6.2461 v 3.24414 h -6.2461 z m 12.50196,0 h 6.24804 v 3.24414 h -6.24804 z m 75.02148,0 h 6.25391 v 3.24414 h -6.25391 z m 12.50195,0 h 6.25586 v 3.24414 h -6.25586 z m 12.50196,0 h 6.25586 v 3.24414 h -6.25586 z m -100.02539,8.90039 h 6.24804 v 3.24609 h -6.24804 z m 12.50195,0 H 187.75 v 3.24609 h -6.25586 z m 50.01758,0 h 6.24609 v 3.24609 h -6.24609 z m 12.50195,0 h 6.25391 v 3.24609 h -6.25391 z m 12.50195,0 h 6.25586 v 3.24609 h -6.25586 z"
         transform="matrix(0.26458333,0,0,0.26458333,211.35733,22.122797)"
         sodipodi:nodetypes="cccccccccccccccccccccccccccccccccccccccccccccccccccccccccccccccccccccccccccccccccccccccccccccccccccccccccccccccccccccccccccccccccccccccccccccccccccccccccccccccccccccccccccccccccccccccccccccccccccccccccccccccccccccccccccccccccccccccccccccccccccccccccccccccccccccccccccccccccccccccccccccccccccccccccccccccccccccccccccccccccccccccccccccccccccccccccccccccccccccccccccccccccccccccccccccccccccccccccccccccccccccccccccccccccccccccccccccccccccccccccccccccccccccccccccccccccccccccccccccccccccccccccccccccccccccccccccccccccccccccccccccccccccccccccccccccccccccccccccccccccccccccccccccccccccccccccccccccccccccccccccccccccccccccccccccccccccccccccccccccccccccccccccccccccccccccccccccccccccccccccccccccccccccccccccccccccc" />
      <path
         inkscape:connector-curvature="0"
         id="path2211"
         d="m 265.85563,77.516909 v 13.715055 c 0.63245,-0.04843 1.28452,-0.06253 1.95071,-0.04272 V 77.492612 c -0.65138,-0.05493 -1.32616,-0.02283 -1.95071,0.0243 z m 3.65186,0.122874 v 13.68034 c 0.57301,0.07239 1.15559,0.175807 1.74557,0.311352 V 77.93621 c -0.5776,-0.121738 -1.15993,-0.220626 -1.74557,-0.296427 z m -5.35267,0.02152 c -0.55987,0.0645 -1.11703,0.150063 -1.67025,0.256507 v 13.870555 c 0.5359,-0.135828 1.09366,-0.254172 1.67025,-0.350222 z m 8.79905,0.665395 v 13.785164 c 0.52589,0.17672 1.05689,0.384928 1.59146,0.620622 V 78.851518 c -0.52355,-0.194715 -1.05443,-0.369781 -1.59146,-0.524817 z m -12.17045,0.02499 c -0.57395,0.159454 -1.14112,0.341716 -1.70011,0.546339 v 14.051737 c 0.52571,-0.226398 1.09484,-0.448228 1.70011,-0.654979 z m 15.46306,1.209303 V 93.58462 c 0.84137,0.471508 1.68924,1.019093 2.54078,1.66262 l -5.1673,24.72687 c 9.16249,-2.87574 15.38798,-11.25552 15.39988,-20.728953 -0.0242,-8.446042 -5.00209,-16.117089 -12.77336,-19.684166 z m -18.86432,0.05519 c -7.68023,3.611683 -12.57493,11.245016 -12.58663,19.628988 0.008,9.391251 6.12402,17.720451 15.17567,20.666471 l -4.91705,-24.795254 c 0.30623,-0.178527 1.12185,-0.725902 2.32801,-1.357171 z"
         style="fill:#6a76ae;fill-opacity:1;fill-rule:evenodd;stroke:none;stroke-width:1.09566;stroke-linecap:square;stroke-linejoin:round;stroke-miterlimit:4;stroke-dasharray:none;stroke-dashoffset:0;stroke-opacity:1;paint-order:stroke markers fill"
         sodipodi:nodetypes="ccccccccccccccccccccccccccccccccccccccc" />
      <path
         style="fill:url(#linearGradient2411);fill-opacity:1;fill-rule:evenodd;stroke:none;stroke-width:1.19087;stroke-linecap:square;stroke-linejoin:round;stroke-miterlimit:4;stroke-dasharray:none;stroke-dashoffset:0;stroke-opacity:1;paint-order:stroke markers fill"
         d="m 256.52335,95.898429 c 6.83264,-4.755624 13.76459,-4.446669 20.77766,0 l -8.663,40.810861 h -3.6547 z"
         id="rect2293"
         inkscape:connector-curvature="0"
         sodipodi:nodetypes="ccccc" />
      <path
         id="rect2293-2"
         style="display:inline;fill:#d9c144;fill-opacity:1;fill-rule:evenodd;stroke:none;stroke-width:1.19087;stroke-linecap:square;stroke-linejoin:round;stroke-miterlimit:4;stroke-dasharray:none;stroke-dashoffset:0;stroke-opacity:1;paint-order:stroke markers fill"
         d="m 273.90457,111.99691 -11.21001,13.82439 1.22978,5.93301 7.82994,-9.62862 z m 2.54708,-16.616964 -15.95628,19.680614 1.59666,7.70288 12.86431,-15.81987 2.34467,-11.045141 c -0.28321,-0.179576 -0.5664,-0.352469 -0.84936,-0.518483 z"
         sodipodi:nodetypes="ccccccccccc" />
      <g
         id="g3673"
         transform="matrix(0.17680552,0,0,0.17680552,189.54596,28.241173)">
        <path
           sodipodi:nodetypes="cccccccccccccccccc"
           inkscape:connector-curvature="0"
           id="path647-1"
           d="m 383.47528,37.111586 v 82.051994 h 37.67096 l 6.91344,-4.29896 V 89.737198 l 5.03027,4.95713 10.48254,-2.20688 2.7634,-3.49484 v 30.170972 h 38.01824 l 7.9947,-4.71888 V 41.009245 l -8.01736,-3.897659 h -37.7626 l -9.33555,9.46142 -2.60716,-2.607164 -14.67173,-6.854256 z"
           style="fill:#ffffff;fill-opacity:1;fill-rule:nonzero;stroke:none;stroke-width:0.122359" />
        <path
           id="path62-7"
           style="fill:#000000;fill-opacity:1;fill-rule:nonzero;stroke:none;stroke-width:0.122359"
           d="m 421.31693,83.092496 5.68538,5.602712 v 25.571752 l -5.68538,3.56081 z m 25.01896,-0.821505 v 5.187927 l -3.30266,4.0618 -8.11051,1.70739 z m -24.07035,-42.913254 11.74483,5.487228 2.47373,2.474238 -3.09104,3.079459 z m 62.47276,-0.873085 6.55417,3.186199 v 72.170139 l -6.55417,3.86846 z M 384.53214,38.221823 h 35.08696 l 13.77447,13.828344 13.7216,-13.828344 h 36.56627 V 118.10671 H 447.39275 V 79.766544 L 433.26467,93.374128 420.25956,80.573949 v 37.532761 h -35.72742 z"
           sodipodi:nodetypes="ccccccccccccccccccccccccccccccccc" />
        <path
           id="path534-1"
           style="fill:#ffffff;stroke:none;stroke-width:0.0630828"
           d="m 502.19948,48.137747 c 0.41025,0.146227 1.49959,0.953997 2.09101,1.550292 0.36828,0.371313 0.8569,1.274053 1.19926,2.216401 0.16459,0.453049 0.18112,0.573799 0.17845,1.31 -0.003,0.789754 -0.01,0.830135 -0.27107,1.554427 -0.14753,0.408987 -0.42214,0.998595 -0.60977,1.309997 -0.18762,0.311401 -0.43218,0.725178 -0.54369,0.91984 -0.21922,0.382645 -0.84892,0.994394 -1.80746,1.755449 -0.32595,0.258794 -0.69299,0.558152 -0.8158,0.665591 -0.37333,0.326575 -1.41232,0.96828 -1.8184,1.122929 -0.49073,0.186894 -1.87597,0.882642 -2.22212,1.116211 -0.28617,0.193095 -1.18175,1.064601 -1.5135,1.472779 -0.33642,0.413917 -1.13751,1.640163 -1.38031,2.11305 -0.39821,0.775565 -1.09826,1.760805 -1.71173,2.40864 -0.54463,0.575127 -1.04507,1.234873 -1.36835,1.804024 -0.18317,0.322493 -0.55775,0.914334 -0.83245,1.315164 -0.27469,0.400831 -0.61181,0.908386 -0.74921,1.128096 -0.30378,0.485812 -1.14291,2.2259 -1.26064,2.613795 -0.0946,0.311634 -0.32505,0.850572 -0.50624,1.184939 -0.18158,0.335111 -0.70847,1.084308 -0.83505,1.187008 -0.1574,0.127704 -1.05097,1.322663 -1.05097,1.405599 0,0.0466 -0.80577,1.201119 -0.95472,1.367875 -0.14968,0.167574 -0.27038,0.413872 -0.67064,1.37201 -0.18631,0.445955 -0.50182,1.147942 -0.70134,1.559594 -0.19953,0.411652 -0.49134,1.015114 -0.6488,1.341004 -0.15746,0.325893 -0.31326,0.634807 -0.34598,0.686263 -0.0327,0.05146 -0.29956,0.55639 -0.59313,1.122413 -0.29358,0.56602 -0.59376,1.132694 -0.667,1.259353 -0.45084,0.779664 -0.87216,1.602408 -1.06762,2.084108 -0.20764,0.51176 -0.324,0.87727 -0.76898,2.42569 -0.28576,0.9944 -0.47416,1.97651 -0.539,2.80707 -0.10371,1.32843 -0.1715,1.93781 -0.34444,3.08715 -0.14781,0.9824 -0.19038,1.14353 -0.42507,1.6123 -0.27067,0.54066 -0.50362,0.7964 -1.77052,1.943042 -0.68237,0.61761 -0.66216,0.60202 -0.93547,0.71365 -0.45937,0.12178 -0.93778,0.10828 -1.34857,0.016 -0.50349,-0.0767 -1.61786,-0.3876 -1.93752,-0.54054 -0.4906,-0.23473 -1.06125,-0.67247 -1.55151,-1.190102 -0.32762,-0.34594 -0.50503,-0.6165 -0.83399,-1.27125 -0.22981,-0.45743 -0.45003,-0.91185 -0.48959,-1.01027 -0.28253,-0.70308 -0.45235,-1.30129 -0.59886,-2.1084 -0.093,-0.51208 -0.2102,-1.02712 -0.26066,-1.14515 -0.12776,-0.29893 -0.85429,-2.59819 -1.17686,-3.72432 -0.14742,-0.51457 -0.36484,-1.22989 -0.48336,-1.59008 -0.11848,-0.3602 -0.33263,-1.11423 -0.47605,-1.67535 -0.31508,-1.23266 -0.59428,-2.031172 -1.08272,-3.096454 -0.22153,-0.483129 -0.39822,-0.981133 -0.59622,-1.683617 -0.12571,-0.445958 -0.33109,-1.176168 -0.45629,-1.622124 -0.12523,-0.445955 -0.29428,-1.048901 -0.37617,-1.340487 -0.0819,-0.291587 -0.21177,-0.726734 -0.28825,-0.966865 -0.0765,-0.24013 -0.17786,-0.633203 -0.22528,-0.873334 -0.13604,-0.688721 -0.47672,-2.22645 -0.539,-2.432407 -0.0311,-0.102915 -0.11673,-0.383606 -0.19044,-0.623736 -0.42601,-1.387182 -0.63211,-3.497744 -0.42297,-4.332034 0.16921,-0.674978 0.72102,-1.323763 1.43597,-1.688788 0.0874,-0.04462 0.48943,-0.161366 0.89332,-0.259932 0.90092,-0.219871 0.99687,-0.247578 1.59466,-0.457853 0.43632,-0.153485 0.53866,-0.165563 1.18054,-0.14056 0.87289,0.034 1.15662,0.145891 1.72785,0.68213 0.87348,0.819949 1.07665,1.304888 1.23568,2.948141 0.0295,0.454803 0.16386,0.94138 0.22683,1.3193 0.0713,0.431472 0.10152,1.008555 0.0989,1.898592 -0.003,1.026012 0.0213,1.40253 0.12174,1.90686 0.0689,0.34567 0.15581,1.019431 0.19305,1.497065 0.10645,1.365406 0.23828,1.932718 0.65712,2.832902 0.10375,0.222977 0.2829,0.671983 0.398,0.997873 0.24233,0.686126 0.56831,1.318101 0.79551,1.540989 0.22959,0.22524 0.5991,0.392742 0.86628,0.392742 0.5772,0 1.00638,-0.421166 1.68883,-1.656746 0.40733,-0.737492 0.63799,-1.152951 0.81941,-1.466665 0.18142,-0.313717 0.3136,-0.525685 0.52396,-0.856192 0.59455,-0.934127 0.9217,-1.540605 1.11704,-2.070674 0.0949,-0.257283 0.28561,-0.734507 0.42403,-1.0604 0.49025,-1.154215 0.92424,-2.217179 1.00519,-2.463416 0.14965,-0.455218 0.55889,-1.186175 1.23464,-2.205032 0.36738,-0.553911 0.75917,-1.224516 0.87095,-1.490348 0.11177,-0.265835 0.31201,-0.680228 0.44484,-0.920358 0.13282,-0.240131 0.33216,-0.649444 0.44276,-0.910021 0.2399,-0.56518 0.70032,-1.302211 1.07439,-1.719276 0.54227,-0.60461 1.02049,-1.253741 1.48592,-2.016932 0.26151,-0.428802 0.56214,-0.911789 0.66752,-1.072801 0.10538,-0.161012 0.32075,-0.495895 0.47867,-0.74414 0.25397,-0.399257 0.66436,-1.006663 1.4776,-2.187467 0.17859,-0.257675 0.34292,-0.563449 0.49063,-0.78083 0.13513,-0.198327 0.38634,-0.581107 0.55826,-0.850593 0.732,-1.147432 0.94628,-1.460514 1.20081,-1.75545 0.14802,-0.171521 0.36544,-0.452213 0.48334,-0.623734 0.1179,-0.171521 0.44619,-0.551328 0.72944,-0.844394 0.28324,-0.293063 0.65856,-0.698672 0.83401,-0.901237 0.17546,-0.202562 0.41729,-0.468294 0.53745,-0.590142 0.12017,-0.121854 0.34035,-0.383207 0.48959,-0.580845 0.14925,-0.197636 0.55097,-0.654042 0.89281,-1.014408 0.61268,-0.645885 1.36574,-1.557411 1.36574,-1.653129 0,-0.09945 0.61806,-0.798505 1.3673,-1.547191 1.14057,-1.139733 1.65875,-1.470544 2.85167,-1.819529 0.53749,-0.157239 0.96592,-0.235262 1.3725,-0.234101 0.40658,0.0011 0.79127,0.08125 1.24036,0.241324 z m -34.01347,5.301485 c 0.27653,-0.004 0.54779,0.02755 0.85168,0.09457 0.74716,0.16475 1.13571,0.398422 1.57439,0.947745 0.37422,0.468567 0.50879,0.74155 0.64204,1.300178 0.15594,0.658347 0.15581,0.878287 -0.003,1.48363 -0.14796,0.565542 -0.27321,0.785231 -0.7799,1.365293 -0.29153,0.333764 -0.41332,0.485251 -0.70823,0.672891 -0.29491,0.187639 -0.76295,0.411429 -1.74698,0.889804 -0.32246,0.156763 -0.86799,0.407297 -1.21227,0.556554 -0.34425,0.149259 -1.02443,0.517601 -1.51144,0.818554 -1.1186,0.691322 -2.8757,1.522862 -4.09097,1.935803 -1.19796,0.407061 -2.27474,0.996974 -2.58633,1.417484 -0.33695,0.454731 -0.44646,1.210982 -0.3158,2.176095 0.0772,0.570481 0.0722,0.695092 -0.0666,1.661914 -0.1926,1.341498 -0.21508,3.737491 -0.0442,4.694285 0.0787,0.440698 0.11521,1.159727 0.14254,2.806549 0.025,1.504799 0.0663,2.384232 0.12957,2.744533 0.16964,0.964621 0.22774,2.308998 0.15608,3.617352 -0.0559,1.019781 -0.0504,1.357648 0.0354,2.089796 0.0759,0.648364 0.1008,1.4146 0.0957,2.976562 -0.004,1.296534 0.0221,2.313754 0.0682,2.651004 0.0908,0.66385 0.0855,4.96889 -0.007,5.53402 -0.0344,0.21075 -0.064,0.8028 -0.064,1.31569 0,0.76919 0.0273,1.06366 0.16233,1.68103 0.0901,0.41165 0.21778,1.12698 0.28408,1.590082 0.14606,1.01992 0.33394,1.46403 0.67065,2.21434 0.31721,0.70687 0.46447,1.61929 0.50935,3.14968 0.0389,1.3277 -0.28298,2.67568 -0.77315,3.23546 -0.30139,0.34427 -0.80773,0.66416 -1.34024,0.84646 -0.24094,0.0825 -0.59627,0.21064 -0.78927,0.28474 -0.193,0.0741 -0.49579,0.18696 -0.67323,0.25063 -0.46008,0.16491 -0.85488,0.17816 -1.65452,0.0543 -0.38599,-0.0598 -0.85952,-0.12819 -1.05251,-0.15193 -1.05454,-0.12967 -1.7615,-0.54438 -2.12381,-1.24592 -0.15386,-0.29792 -0.41707,-1.32958 -0.46097,-1.80764 -0.0221,-0.24013 -0.053,-0.54904 -0.0687,-0.68626 -0.016,-0.13722 -0.0557,-0.89514 -0.089,-1.68414 -0.0591,-1.4036 -0.1329,-2.11923 -0.2565,-2.49493 -0.20744,-0.63048 -0.53869,-2.03939 -0.62486,-2.658242 -0.0971,-0.69682 -0.0954,-0.76958 0.0406,-1.86604 0.0778,-0.62742 0.21595,-1.49367 0.30695,-1.92546 0.17094,-0.81132 0.1939,-1.22541 0.14518,-2.62517 -0.0187,-0.53553 -0.003,-0.84966 0.0541,-1.00355 0.0447,-0.12322 0.16761,-0.67075 0.27315,-1.21647 0.15208,-0.78651 0.19894,-1.22465 0.22425,-2.1146 0.0176,-0.61747 0.0762,-1.461075 0.13058,-1.874299 0.0785,-0.59619 0.0927,-1.175557 0.0682,-2.806549 -0.0301,-2.005481 -0.13695,-4.501927 -0.20136,-4.700487 -0.0176,-0.05453 -0.0616,-0.660598 -0.0973,-1.346686 -0.10325,-1.984381 -0.17698,-2.900059 -0.35277,-4.366144 -0.17709,-1.476878 -0.24486,-1.735899 -0.77156,-2.962092 -0.24281,-0.56528 -0.67217,-0.857703 -1.13786,-0.775148 -0.49766,0.08822 -2.14253,0.870249 -3.06865,1.459344 -0.24717,0.157232 -0.86418,0.486699 -1.37145,0.732256 -0.52683,0.255013 -1.09756,0.584959 -1.33089,0.769461 -0.22466,0.17766 -0.61199,0.450866 -0.86106,0.606682 -0.24904,0.155823 -0.62555,0.412853 -0.8361,0.571539 -0.21055,0.158684 -0.59787,0.426741 -0.86106,0.595313 -0.38487,0.247893 -0.79586,0.543708 -1.11495,0.751377 -1.02367,0.665284 -1.63079,1.360601 -2.29238,2.624129 -0.2708,0.517205 -0.54553,0.865063 -1.36522,1.730643 -0.12531,0.13231 -0.42606,0.483301 -0.66857,0.779798 -0.56292,0.688189 -0.82769,0.856504 -1.58739,1.009756 -0.82235,0.165886 -1.23837,0.15613 -1.82827,-0.04289 -0.93987,-0.317135 -1.31829,-0.652251 -1.70444,-1.509985 -0.41063,-0.912132 -0.49779,-1.297477 -0.45422,-2.00556 0.0689,-1.119039 0.36551,-1.839968 1.04266,-2.534213 0.45728,-0.468839 0.89785,-0.756632 1.28613,-0.840259 0.39718,-0.08556 0.84663,-0.169156 1.47708,-0.274918 0.75019,-0.125846 1.12614,-0.239278 1.65867,-0.500229 0.56524,-0.276971 1.47026,-0.837668 2.00985,-1.244886 0.24563,-0.18538 0.70499,-0.519369 1.02081,-0.74259 0.3191,-0.220766 0.66981,-0.482981 0.95731,-0.692462 0.14035,-0.101013 0.47054,-0.366813 0.73413,-0.590664 0.26358,-0.223845 0.65919,-0.533442 0.87928,-0.687813 0.22003,-0.154369 0.65341,-0.463286 0.9625,-0.686263 1.27351,-0.918689 1.92391,-1.318387 3.29339,-2.023647 0.28072,-0.144563 0.71186,-0.374481 0.95784,-0.51108 0.24601,-0.136594 0.59074,-0.293084 0.76586,-0.347266 0.95384,-0.295135 1.42273,-0.456731 1.59415,-0.549838 0.75659,-0.410941 0.94239,-0.531244 1.11133,-0.719336 0.30027,-0.334325 0.35406,-0.60221 0.27158,-1.349788 -0.039,-0.353385 -0.1037,-1.147792 -0.14411,-1.765268 -0.072,-1.10018 -0.0709,-1.129821 0.0692,-1.489316 0.18732,-0.480655 0.69569,-1.055936 1.19042,-1.346687 0.30994,-0.182152 0.50541,-0.246015 0.92507,-0.303342 1.20894,-0.165145 2.0026,-0.02445 3.05248,0.542086 0.98578,0.531974 1.19202,0.594985 1.81163,0.550871 0.52145,-0.03713 1.15808,-0.207346 1.5697,-0.419095 0.37307,-0.191918 1.35033,-0.597461 1.72265,-0.715203 0.52963,-0.167484 1.14048,-0.480716 2.23305,-1.144633 1.1694,-0.71062 1.5814,-1.091504 2.26166,-2.090311 0.95864,-1.407565 1.64359,-1.953305 2.78612,-2.221053 0.32464,-0.07608 0.60637,-0.1159 0.88293,-0.119888 z"
           sodipodi:nodetypes="ccccccccccccccccccccccccccccccccccccccccccccccccccccccccccccccccccccccccccccccccccccccccccccccccccccccccccccccccccccccccccccccccccccccccccccccccccccccccccccccccccccccccccccccccccccccccccccccccc" />
        <path
           id="path3152-5-0"
           style="font-style:normal;font-variant:normal;font-weight:normal;font-stretch:normal;font-size:7.81061px;line-height:1;font-family:ATSackersGothic;-inkscape-font-specification:ATSackersGothic;text-align:start;letter-spacing:0px;word-spacing:0px;text-anchor:start;display:inline;fill:#ffffff;fill-opacity:1;stroke:none;stroke-width:0.701585"
           d="m 472.96979,121.51954 c -2.21038,-1.6e-4 -4.00235,2.25688 -4.00245,5.04121 -3e-5,2.78445 1.79198,5.04167 4.00245,5.04151 2.21036,-4e-5 4.00219,-2.2572 4.00216,-5.04151 -10e-5,-2.78419 -1.79189,-5.04117 -4.00216,-5.04121 z m -58.43374,5.2e-4 c -0.68133,0.017 -1.33333,0.22886 -1.94942,0.6357 -1.17004,0.77267 -1.71393,2.19717 -1.83908,3.54421 -0.13814,1.48681 -0.0132,2.791 0.72267,4.12766 0.45789,0.8317 1.57877,1.6041 2.52003,1.72058 1.11489,0.13798 2.03994,-0.0187 2.92018,-0.79564 0.85724,-0.75659 1.22271,-1.99519 1.33269,-3.0956 h -2.34082 c 0,0 -0.0634,0.65648 -0.17074,0.99354 -0.16416,0.51554 -0.76161,1.03278 -1.65141,0.61935 -0.5124,-0.23807 -0.78403,-0.99087 -0.87796,-1.50752 -0.1503,-0.82669 -0.17023,-1.7342 0.0321,-2.55739 0.15511,-0.63104 0.7498,-1.57403 1.44214,-1.53291 0.97295,0.0578 1.14332,1.16762 1.18063,1.72321 h 2.31717 c -0.0497,-0.57316 -0.21987,-1.21957 -0.42234,-1.75852 -0.34585,-0.92062 -1.29619,-1.79885 -2.26931,-2.01918 -0.32125,-0.0727 -0.63684,-0.10523 -0.94654,-0.0975 z m -10.57921,0.0552 c -0.43042,0.007 -0.86172,0.0643 -1.28365,0.16111 -1.04082,0.23878 -1.88753,1.09899 -2.15927,2.11316 -0.30764,1.1481 -0.0316,2.11821 0.72325,2.80985 0.84589,0.7751 2.08988,0.82492 3.11896,1.2247 0.46716,0.18149 0.62525,0.67432 0.48479,1.14969 -0.14667,0.4964 -0.64715,0.63198 -1.10357,0.5925 -0.81499,-0.0705 -0.99367,-0.83745 -0.96289,-1.38406 h -2.41028 c 0.0325,0.79156 0.0601,1.28589 0.51311,1.94942 0.44077,0.64557 1.46555,1.33782 2.59971,1.39835 1.19651,0.0639 1.70764,-0.10566 2.42429,-0.49852 1.03305,-0.56629 1.43798,-1.6179 1.50694,-2.74564 0.0523,-0.85479 -0.30966,-1.49903 -0.95092,-2.08805 -0.64587,-0.59326 -2.11825,-0.8487 -2.59095,-0.97749 -0.56386,-0.15361 -0.96318,-0.34383 -0.96318,-0.86394 0,-0.51554 0.2475,-0.91268 0.91823,-0.91268 0.77549,0 1.04501,0.61434 1.02447,1.08168 h 2.34257 c 0,0 0.001,-0.63045 -0.18067,-1.19872 -0.24996,-0.78197 -0.97303,-1.45681 -1.77195,-1.66425 -0.41888,-0.10877 -0.84857,-0.15364 -1.27899,-0.14711 z m 58.27642,0 c -0.43041,0.007 -0.86143,0.0643 -1.28336,0.16111 -1.04082,0.23878 -1.88782,1.09899 -2.15957,2.11316 -0.30763,1.1481 -0.0316,2.11821 0.72326,2.80985 0.84589,0.7751 2.09017,0.82492 3.11924,1.2247 0.46718,0.18149 0.62526,0.67432 0.48481,1.14969 -0.14668,0.4964 -0.64744,0.63198 -1.10387,0.5925 -0.81499,-0.0705 -0.99338,-0.83745 -0.96259,-1.38406 h -2.41058 c 0.0325,0.79156 0.0604,1.28589 0.51341,1.94942 0.44077,0.64557 1.46526,1.33782 2.59941,1.39835 1.19651,0.0639 1.70764,-0.10566 2.4243,-0.49852 1.03304,-0.56629 1.43798,-1.6179 1.50693,-2.74564 0.0523,-0.85479 -0.30966,-1.49903 -0.95092,-2.08805 -0.64587,-0.59326 -2.11796,-0.8487 -2.59066,-0.97749 -0.56386,-0.15361 -0.96318,-0.34383 -0.96318,-0.86394 0,-0.51554 0.2475,-0.91268 0.91823,-0.91268 0.7755,0 1.04502,0.61434 1.02448,1.08168 h 2.34227 c 0,0 10e-4,-0.63045 -0.18037,-1.19872 -0.24997,-0.78197 -0.97333,-1.45681 -1.77225,-1.66425 -0.41888,-0.10877 -0.84857,-0.15364 -1.27899,-0.14711 z m -78.75798,0.298 v 9.58772 h 2.04398 v -5.93056 l 1.33648,5.93056 h 1.61727 l 1.33619,-5.93056 v 5.93056 h 2.10002 v -9.58772 h -3.19454 l -1.06971,5.18628 -1.15991,-5.18628 z m 9.20448,0 v 5.34477 c 0,0.54742 0.014,1.1742 0.014,1.1742 0.006,1.14357 0.54643,2.35208 1.58283,2.89538 0.85539,0.44841 1.87263,0.47621 2.81978,0.36863 0.78934,-0.0897 1.55496,-0.44007 2.05974,-1.07176 0.614,-0.76835 0.7928,-1.77027 0.76938,-2.72579 v -5.98543 h -2.42546 v 5.6454 c 0,0.70858 0.0346,1.10729 -0.23496,1.54167 -0.27859,0.44894 -0.89424,0.47883 -1.35955,0.35929 -0.7252,-0.18631 -0.72473,-0.8355 -0.725,-1.34349 l -0.007,-6.20287 z m 15.09711,0 v 9.58772 h 2.35833 v -9.58772 z m 13.22707,0 v 2.05712 h 2.14351 v 7.5306 h 2.43568 v -7.5306 h 2.14322 v -2.05712 z m 7.05806,0 v 9.58772 h 6.38617 v -2.08545 h -3.94349 v -1.76641 h 3.39973 v -1.98911 h -3.39973 v -1.68965 h 3.84717 v -2.05711 z m 6.90717,0 v 9.58772 h 5.86488 v -2.08543 h -3.42979 v -7.50229 z m 6.29948,0 v 9.58772 h 6.38617 v -2.08545 h -3.94349 v -1.76641 h 3.39973 v -1.98911 h -3.39973 v -1.68965 h 3.84717 v -2.05711 z m 6.6074,0 2.52149,9.58772 h 2.67035 l 2.64611,-9.58772 h -2.59037 l -1.3753,5.93319 -1.31314,-5.93319 z m 7.99673,0 v 9.58772 h 2.35804 v -9.58772 z m 10.19072,0 v 9.58772 h 2.35833 v -9.58772 z m 11.38478,0 v 9.58772 h 2.27661 v -5.07012 l 2.40094,5.07012 h 2.40532 v -9.58772 h -2.30871 v 5.07275 l -2.42138,-5.07275 z m -4.47849,1.81312 c 0.87945,6e-5 1.59239,1.28689 1.59246,2.87435 2e-5,1.58757 -0.71295,2.87459 -1.59246,2.87465 -0.87963,2.7e-4 -1.59277,-1.28688 -1.59275,-2.87465 7e-5,-1.58766 0.71318,-2.87459 1.59275,-2.87435 z"
           sodipodi:nodetypes="cccccccccccccccccccccccccccccccccccccccccccccccccccccccccccccccccccccccccccccccccccccccccccccccccccccccccccccccccccccccccccccccccccccccccccccccccccccccccccccccccccccccccccccccccc" />
      </g>
      <path
         sodipodi:nodetypes="ccccccccccccccccccccccccccccccccccccccccccccccccccccccccccccccccccccccccccccccccccccccccccccccccccccccccccccccccccccccccccccccccccccccccccccc"
         inkscape:connector-curvature="0"
         d="m 307.22421,85.583426 c 0.20559,0.582491 0.30941,1.044265 0.31141,1.385327 0.0196,0.334872 -0.0577,0.646956 -0.23181,0.936256 -0.0609,0.106931 -0.12196,0.185452 -0.1832,0.235548 -0.0523,0.07542 -0.13106,0.131706 -0.23633,0.168862 -0.0964,0.06248 -0.23221,0.124677 -0.40763,0.186601 -0.14895,0.08107 -0.35501,0.168029 -0.61815,0.260912 l -12.99967,4.588491 c -0.49122,0.173386 -0.86873,0.24968 -1.13255,0.228876 -0.25489,0.0045 -0.51473,-0.08888 -0.77957,-0.280222 -0.47668,-0.344397 -0.85359,-0.909151 -1.13071,-1.694243 l -0.65702,-1.861445 17.36797,-6.130373 z m -16.75434,5.102072 c 0.26818,0.759772 0.52143,1.225753 0.75978,1.397952 0.26482,0.191336 0.65161,0.197212 1.16036,0.01764 l 13.15755,-4.644218 c 0.52632,-0.185774 0.81958,-0.388971 0.87982,-0.609596 0.0778,-0.226817 -0.004,-0.682124 -0.24539,-1.365915 l -0.10727,-0.303913 z m 12.66987,-14.036024 -0.74384,0.542929 -1.42504,-1.952382 -6.17612,4.507962 1.42504,1.952377 -0.74384,0.54293 -1.42504,-1.952379 -6.46916,4.721839 1.42505,1.952379 -0.74384,0.542931 -2.2088,-3.026194 14.87677,-10.858583 z m -13.16998,-1.674896 -4.91434,5.821467 c -0.87606,1.037773 -1.91949,1.045594 -3.1303,0.02348 -1.23135,-1.039465 -1.40298,-2.085188 -0.51492,-3.137177 l 9.30661,-11.024545 c 0.94806,-1.123068 2.06856,-1.138888 3.36146,-0.04747 0.61567,0.519727 0.94289,1.027253 0.98167,1.522578 0.0508,0.481109 -0.18185,1.027303 -0.69788,1.638593 l -2.70019,3.198616 -1.01585,-0.857562 2.70019,-3.19861 c 0.34802,-0.412262 0.53072,-0.73279 0.54811,-0.96157 0.0174,-0.228785 -0.12781,-0.473108 -0.43564,-0.732975 -0.57464,-0.48508 -1.15596,-0.379328 -1.74401,0.317255 l -9.30662,11.024553 c -0.45603,0.54021 -0.38648,1.061515 0.20867,1.56392 0.49253,0.415792 0.96682,0.353578 1.42286,-0.186631 l 4.30228,-5.096459 -1.10821,-0.935519 0.61204,-0.725014 z m -8.95335,-6.138089 -2.38342,7.235984 c -0.42487,1.289937 -1.38982,1.687034 -2.89486,1.191305 -1.53053,-0.504132 -2.08043,-1.409999 -1.64975,-2.717603 l 4.51364,-13.703316 c 0.45982,-1.395954 1.49325,-1.829262 3.10031,-1.299922 0.76527,0.252066 1.25842,0.600581 1.47944,1.045545 0.22687,0.427294 0.21515,1.020853 -0.0352,1.78068 l -1.30956,3.975817 -1.26269,-0.415913 1.30956,-3.975816 c 0.16878,-0.512441 0.21851,-0.878016 0.14917,-1.096729 -0.0693,-0.218714 -0.29532,-0.391089 -0.67797,-0.517122 -0.71424,-0.235262 -1.21397,0.08003 -1.49916,0.945875 l -4.51365,13.703321 c -0.22117,0.671469 0.038,1.129034 0.77788,1.372703 0.61221,0.201649 1.02889,-0.0333 1.25006,-0.704731 l 2.08659,-6.334807 -1.37747,-0.453715 0.29683,-0.901185 z M 267.2062,57.303633 v 16.492606 c 0,0.427895 0.0805,0.72556 0.24171,0.892999 0.18799,0.167439 0.48342,0.251162 0.88627,0.251162 0.37601,0 0.64458,-0.08372 0.80571,-0.251162 0.188,-0.167439 0.282,-0.446501 0.282,-0.837189 V 57.303633 h 1.32944 v 16.380983 c 0,1.432517 -0.7923,2.148782 -2.37686,2.148782 -0.91314,0 -1.55771,-0.167439 -1.9337,-0.502317 -0.376,-0.334872 -0.564,-0.902301 -0.564,-1.702282 V 57.303633 Z m -11.43947,1.314967 4.47811,16.914478 2.74065,-0.784541 0.23568,0.890235 -4.02579,1.124787 -4.71381,-17.804716 z m -10.88712,4.784621 c 0.86435,-0.637969 1.56881,-0.94983 2.11342,-0.935589 0.53355,-6.41e-4 1.03786,0.320732 1.51293,0.964381 l 3.13794,4.251365 c 0.48613,0.658613 0.64469,1.235256 0.47574,1.729938 -0.15842,0.463762 -0.71301,1.04653 -1.66378,1.74829 l 5.26419,7.132119 -1.06962,0.78948 -10.93766,-14.818733 z m 5.02938,7.017448 c 0.60503,-0.446577 0.94451,-0.778073 1.01842,-0.994498 0.0739,-0.216424 -0.0382,-0.526707 -0.33656,-0.930855 l -3.18765,-4.318723 c -0.2762,-0.374209 -0.55046,-0.564877 -0.82276,-0.571998 -0.27229,-0.0071 -0.63534,0.156784 -1.08912,0.491713 l -0.16206,0.119622 z m -15.96573,3.419076 13.11703,5.146747 -9.88116,-8.7511 1.04396,-1.060163 13.42522,11.825891 -0.85075,1.124415 -12.02274,-4.534276 9.65598,7.261719 -0.80214,1.060161 -14.51183,-10.981106 z m -6.5268,10.557533 15.08641,6.663808 c 0.39141,0.172892 0.69626,0.219459 0.91453,0.139706 0.22912,-0.104314 0.42507,-0.340728 0.58783,-0.709233 0.15193,-0.343942 0.18386,-0.623439 0.0958,-0.838497 -0.0771,-0.239621 -0.29448,-0.438359 -0.65189,-0.59622 l -15.13744,-6.686354 0.53715,-1.216081 14.9843,6.618709 c 1.31039,0.578809 1.64545,1.592943 1.00521,3.042402 -0.36895,0.835284 -0.78256,1.357242 -1.2408,1.56588 -0.45825,0.208635 -1.05324,0.151336 -1.78502,-0.171892 l -14.9332,-6.596161 z"
         style="font-style:normal;font-variant:normal;font-weight:normal;font-stretch:normal;font-size:134.805px;line-height:1;font-family:Bee-TwoW01-Normal;-inkscape-font-specification:Bee-TwoW01-Normal;text-align:center;letter-spacing:0px;word-spacing:0px;text-anchor:middle;fill:#ffffff;fill-opacity:1;stroke:none;stroke-width:2.5147"
         id="path1419" />
      <g
         id="g6675"
         clip-path="url(#clipPath6677)" />
    </g>
  </g>
  <style
     id="style7166"
     type="text/css">
	.st0{fill:#FFCB05;}
	.st1{fill:#00B6F1;}
	.st2{fill:#ED1C24;}
</style>
  <style
     type="text/css"
     id="style7166-9">
	.st0{fill:#FFCB05;}
	.st1{fill:#00B6F1;}
	.st2{fill:#ED1C24;}
</style>
  <style
     id="style7166-73"
     type="text/css">
	.st0{fill:#FFCB05;}
	.st1{fill:#00B6F1;}
	.st2{fill:#ED1C24;}
</style>
  <style
     type="text/css"
     id="style7166-9-8">
	.st0{fill:#FFCB05;}
	.st1{fill:#00B6F1;}
	.st2{fill:#ED1C24;}
</style>
  <style
     type="text/css"
     id="style7166-0">
	.st0{fill:#FFCB05;}
	.st1{fill:#00B6F1;}
	.st2{fill:#ED1C24;}
</style>
  <style
     id="style7166-5"
     type="text/css">
	.st0{fill:#FFCB05;}
	.st1{fill:#00B6F1;}
	.st2{fill:#ED1C24;}
</style>
  <style
     type="text/css"
     id="style7166-6">
	.st0{fill:#FFCB05;}
	.st1{fill:#00B6F1;}
	.st2{fill:#ED1C24;}
</style>
  <style
     id="style7166-5-0"
     type="text/css">
	.st0{fill:#FFCB05;}
	.st1{fill:#00B6F1;}
	.st2{fill:#ED1C24;}
</style>
  <style
     id="style7166-55"
     type="text/css">
	.st0{fill:#FFCB05;}
	.st1{fill:#00B6F1;}
	.st2{fill:#ED1C24;}
</style>
  <style
     id="style7166-7"
     type="text/css">
	.st0{fill:#FFCB05;}
	.st1{fill:#00B6F1;}
	.st2{fill:#ED1C24;}
</style>
  <style
     type="text/css"
     id="style7166-9-2">
	.st0{fill:#FFCB05;}
	.st1{fill:#00B6F1;}
	.st2{fill:#ED1C24;}
</style>
  <style
     type="text/css"
     id="style7166-0-2">
	.st0{fill:#FFCB05;}
	.st1{fill:#00B6F1;}
	.st2{fill:#ED1C24;}
</style>
  <style
     id="style7166-5-8"
     type="text/css">
	.st0{fill:#FFCB05;}
	.st1{fill:#00B6F1;}
	.st2{fill:#ED1C24;}
</style>
  <style
     id="style7166-04"
     type="text/css">
	.st0{fill:#FFCB05;}
	.st1{fill:#00B6F1;}
	.st2{fill:#ED1C24;}
</style>
  <style
     type="text/css"
     id="style7166-9-03">
	.st0{fill:#FFCB05;}
	.st1{fill:#00B6F1;}
	.st2{fill:#ED1C24;}
</style>
  <style
     id="style7166-2"
     type="text/css">
	.st0{fill:#FFCB05;}
	.st1{fill:#00B6F1;}
	.st2{fill:#ED1C24;}
</style>
  <style
     type="text/css"
     id="style7166-9-0">
	.st0{fill:#FFCB05;}
	.st1{fill:#00B6F1;}
	.st2{fill:#ED1C24;}
</style>
  <style
     type="text/css"
     id="style7166-0-0">
	.st0{fill:#FFCB05;}
	.st1{fill:#00B6F1;}
	.st2{fill:#ED1C24;}
</style>
  <style
     id="style7166-5-5"
     type="text/css">
	.st0{fill:#FFCB05;}
	.st1{fill:#00B6F1;}
	.st2{fill:#ED1C24;}
</style>
  <style
     type="text/css"
     id="style7166-6-0">
	.st0{fill:#FFCB05;}
	.st1{fill:#00B6F1;}
	.st2{fill:#ED1C24;}
</style>
  <style
     id="style7166-5-0-9"
     type="text/css">
	.st0{fill:#FFCB05;}
	.st1{fill:#00B6F1;}
	.st2{fill:#ED1C24;}
</style>
  <style
     id="style7166-55-3"
     type="text/css">
	.st0{fill:#FFCB05;}
	.st1{fill:#00B6F1;}
	.st2{fill:#ED1C24;}
</style>
  <style
     type="text/css"
     id="style7166-68">
	.st0{fill:#FFCB05;}
	.st1{fill:#00B6F1;}
	.st2{fill:#ED1C24;}
</style>
  <style
     id="style7166-9-9"
     type="text/css">
	.st0{fill:#FFCB05;}
	.st1{fill:#00B6F1;}
	.st2{fill:#ED1C24;}
</style>
  <style
     id="style235">.st0{fill:#fff}.st1{fill:#fb0}.st2{fill:#ff4a00}</style>
  <style
     id="style7166-93"
     type="text/css">
	.st0{fill:#FFCB05;}
	.st1{fill:#00B6F1;}
	.st2{fill:#ED1C24;}
</style>
  <style
     type="text/css"
     id="style7166-9-7">
	.st0{fill:#FFCB05;}
	.st1{fill:#00B6F1;}
	.st2{fill:#ED1C24;}
</style>
  <style
     id="style7166-1"
     type="text/css">
	.st0{fill:#FFCB05;}
	.st1{fill:#00B6F1;}
	.st2{fill:#ED1C24;}
</style>
  <style
     type="text/css"
     id="style7166-3">
	.st0{fill:#FFCB05;}
	.st1{fill:#00B6F1;}
	.st2{fill:#ED1C24;}
</style>
</svg>
